<svg width="47" height="48" viewBox="0 0 47 48" fill="none" xmlns="http://www.w3.org/2000/svg">
<circle cx="23.5" cy="24" r="23.5" fill="#35466D"/>
<path d="M34.7188 14.5H13.1562C11.9658 14.5 11 15.4658 11 16.6562V17.375H36.875V16.6562C36.875 15.4658 35.9092 14.5 34.7188 14.5ZM11 32.4688C11 33.6592 11.9658 34.625 13.1562 34.625H34.7188C35.9092 34.625 36.875 33.6592 36.875 32.4688V18.8125H11V32.4688ZM26.8125 22.0469C26.8125 21.8492 26.9742 21.6875 27.1719 21.6875H33.6406C33.8383 21.6875 34 21.8492 34 22.0469V22.7656C34 22.9633 33.8383 23.125 33.6406 23.125H27.1719C26.9742 23.125 26.8125 22.9633 26.8125 22.7656V22.0469ZM26.8125 24.9219C26.8125 24.7242 26.9742 24.5625 27.1719 24.5625H33.6406C33.8383 24.5625 34 24.7242 34 24.9219V25.6406C34 25.8383 33.8383 26 33.6406 26H27.1719C26.9742 26 26.8125 25.8383 26.8125 25.6406V24.9219ZM26.8125 27.7969C26.8125 27.5992 26.9742 27.4375 27.1719 27.4375H33.6406C33.8383 27.4375 34 27.5992 34 27.7969V28.5156C34 28.7133 33.8383 28.875 33.6406 28.875H27.1719C26.9742 28.875 26.8125 28.7133 26.8125 28.5156V27.7969Z" fill="#DCFF1C"/>
<path d="M15.865 26.5524H16.1449C16.657 27.7239 17.8222 28.5428 19.1823 28.5428C20.5424 28.5428 21.7076 27.7239 22.2197 26.5524H22.4996C22.6821 26.5524 22.8314 26.4032 22.8314 26.2207V24.2303C22.8314 24.0479 22.6821 23.8986 22.4996 23.8986H22.2197C21.7076 22.7272 20.5424 21.9082 19.1823 21.9082C17.8222 21.9082 16.657 22.7272 16.1449 23.8986H15.865C15.6826 23.8986 15.5333 24.0479 15.5333 24.2303V26.2207C15.5333 26.4032 15.6826 26.5524 15.865 26.5524ZM16.6943 24.7279C16.6943 24.2697 17.1401 23.8986 17.6895 23.8986H20.6751C21.2245 23.8986 21.6703 24.2697 21.6703 24.7279V25.2255C21.6703 26.3244 20.7788 27.2159 19.6799 27.2159H18.6847C17.5859 27.2159 16.6943 26.3244 16.6943 25.2255V24.7279ZM18.1871 26.2207L18.4359 25.4743L19.1823 25.2255L18.4359 24.9767L18.1871 24.2303L17.9383 24.9767L17.1919 25.2255L17.9383 25.4743L18.1871 26.2207ZM21.3303 28.5718C20.7104 28.972 19.9743 29.2063 19.1823 29.2063C18.3903 29.2063 17.6543 28.972 17.0344 28.5718C15.6349 28.719 14.5381 29.8905 14.5381 31.3294V31.5284C14.5381 32.0778 14.9838 32.5236 15.5333 32.5236H17.1919V31.1967C17.1919 30.8297 17.4884 30.5332 17.8554 30.5332H20.5092C20.8762 30.5332 21.1727 30.8297 21.1727 31.1967V32.5236H22.8314C23.3808 32.5236 23.8265 32.0778 23.8265 31.5284V31.3294C23.8265 29.8905 22.7298 28.719 21.3303 28.5718ZM20.1775 31.1967C19.9951 31.1967 19.8458 31.3459 19.8458 31.5284C19.8458 31.7108 19.9951 31.8601 20.1775 31.8601C20.36 31.8601 20.5092 31.7108 20.5092 31.5284C20.5092 31.3459 20.36 31.1967 20.1775 31.1967ZM18.1871 31.1967C18.0047 31.1967 17.8554 31.3459 17.8554 31.5284V32.5236H18.5189V31.5284C18.5189 31.3459 18.3696 31.1967 18.1871 31.1967Z" fill="#35466D"/>
</svg>
