<svg fill="none" height="17" viewBox="0 0 17 17" width="17" xmlns="http://www.w3.org/2000/svg"><g clip-rule="evenodd" fill="#35466d" fill-rule="evenodd"><path d="m12.308 2.44349c.2088-.08648.4326-.13099.6586-.13099s.4497.04451.6585.13099.3985.21324.5583.37303.2865.3495.373.55828.131.43255.131.65853-.0445.44975-.131.65853-.2132.39849-.373.55828l-3.5794 3.57937c-.2636.2636-.5986.44268-.9636.51569-.00002.00001.00003 0 0 0l-1.655.33125c-.1844.03691-.37506-.02078-.50807-.15374-.133-.13296-.19076-.32359-.15392-.50801l.33062-1.655c.07325-.36503.25297-.70068.51636-.96381.00009-.00009-.0001.0001 0 0l3.57941-3.57937c.1598-.15979.3495-.28655.5582-.37303zm.6586.99401c-.0783 0-.1558.01541-.228.04535-.0723.02995-.138.07384-.1933.12916l-.6107.61064.8429.84243.6104-.61044c.0553-.05532.0992-.12101.1291-.1933.03-.07228.0454-.14976.0454-.22801s-.0154-.15573-.0454-.22801c-.0299-.07229-.0738-.13798-.1291-.19331-.0553-.05532-.121-.09921-.1933-.12916-.0723-.02994-.1498-.04535-.228-.04535zm-.9846 2.42307-.8429-.84243-2.17322 2.17325c-.10631.10616-.17911.24168-.2087.38898-.00001.00006.00001-.00007 0 0l-.16529.82738.82772-.16567c.14748-.02949.28251-.10167.3889-.20806z"/><path d="m4.75 4.6875c-.18234 0-.3572.07243-.48614.20136-.12893.12893-.20136.3038-.20136.48614v6.875c0 .1823.07243.3572.20136.4861.12894.129.3038.2014.48614.2014h6.875c.1823 0 .3572-.0724.4861-.2014.129-.1289.2014-.3038.2014-.4861v-1.875c0-.3107.2518-.5625.5625-.5625s.5625.2518.5625.5625v1.875c0 .4807-.191.9417-.5309 1.2816s-.8009.5309-1.2816.5309h-6.875c-.48071 0-.94172-.191-1.28163-.5309s-.53087-.8009-.53087-1.2816v-6.875c0-.48071.19096-.94172.53087-1.28163s.80092-.53087 1.28163-.53087h1.875c.31066 0 .5625.25184.5625.5625s-.25184.5625-.5625.5625z"/></g></svg>