<svg width="17" height="17" viewBox="0 0 17 17" fill="none" xmlns="http://www.w3.org/2000/svg">
<path d="M14.3364 8.3545C14.5825 8.02931 14.7188 7.63087 14.7188 7.21632C14.7188 6.5586 14.3511 5.93605 13.7593 5.58888C13.6069 5.49952 13.4335 5.45248 13.2568 5.45265H9.74414L9.83203 3.65235C9.85254 3.2173 9.69873 2.80421 9.3999 2.48927C9.25325 2.33404 9.07632 2.21053 8.88005 2.12638C8.68378 2.04222 8.47234 1.99922 8.25879 2.00001C7.49707 2.00001 6.82324 2.51271 6.62109 3.24659L5.36279 7.80226H3.46875C3.20947 7.80226 3 8.01173 3 8.27101V13.603C3 13.8623 3.20947 14.0718 3.46875 14.0718H12.2769C12.4116 14.0718 12.5435 14.0454 12.665 13.9927C13.3623 13.6953 13.812 13.0142 13.812 12.2583C13.812 12.0737 13.7856 11.8921 13.7329 11.7163C13.979 11.3911 14.1152 10.9927 14.1152 10.5781C14.1152 10.3936 14.0889 10.2119 14.0361 10.0361C14.2822 9.71095 14.4185 9.31251 14.4185 8.89796C14.4155 8.71339 14.3892 8.53028 14.3364 8.3545ZM4.05469 13.0171V8.85694H5.24121V13.0171H4.05469ZM13.377 7.8462L13.0562 8.12452L13.2598 8.49659C13.3268 8.61916 13.3616 8.75678 13.3608 8.89649C13.3608 9.13819 13.2554 9.36817 13.0737 9.52638L12.7529 9.8047L12.9565 10.1768C13.0236 10.2993 13.0584 10.437 13.0576 10.5767C13.0576 10.8184 12.9521 11.0484 12.7705 11.2066L12.4497 11.4849L12.6533 11.8569C12.7204 11.9795 12.7552 12.1171 12.7544 12.2568C12.7544 12.585 12.561 12.8809 12.2622 13.0156H6.17871V8.81007L7.63623 3.52931C7.67381 3.39396 7.75449 3.27454 7.86604 3.18917C7.97759 3.10379 8.11393 3.05709 8.25439 3.05616C8.36572 3.05616 8.47559 3.08839 8.56348 3.15431C8.7085 3.26271 8.78613 3.42677 8.77734 3.60108L8.63672 6.50733H13.2422C13.5029 6.667 13.6641 6.93653 13.6641 7.21632C13.6641 7.45802 13.5586 7.68653 13.377 7.8462Z" fill="#35466D"/>
</svg>
