<svg width="47" height="47" viewBox="0 0 47 47" fill="none" xmlns="http://www.w3.org/2000/svg">
<circle cx="23.5" cy="23.5" r="23.5" fill="#35466D"/>
<g clip-path="url(#clip0)">
<path d="M13.375 25.3125H13.876C14.7926 27.4092 16.8781 28.875 19.3125 28.875C21.7469 28.875 23.8324 27.4092 24.749 25.3125H25.25C25.5766 25.3125 25.8438 25.0453 25.8438 24.7188V21.1562C25.8438 20.8297 25.5766 20.5625 25.25 20.5625H24.749C23.8324 18.4658 21.7469 17 19.3125 17C16.8781 17 14.7926 18.4658 13.876 20.5625H13.375C13.0484 20.5625 12.7813 20.8297 12.7813 21.1562V24.7188C12.7813 25.0453 13.0484 25.3125 13.375 25.3125ZM14.8594 22.0469C14.8594 21.2268 15.6572 20.5625 16.6406 20.5625H21.9844C22.9678 20.5625 23.7656 21.2268 23.7656 22.0469V22.9375C23.7656 24.9043 22.1699 26.5 20.2031 26.5H18.4219C16.4551 26.5 14.8594 24.9043 14.8594 22.9375V22.0469ZM17.5313 24.7188L17.9766 23.3828L19.3125 22.9375L17.9766 22.4922L17.5313 21.1562L17.0859 22.4922L15.75 22.9375L17.0859 23.3828L17.5313 24.7188ZM23.157 28.927C22.0475 29.6432 20.7301 30.0625 19.3125 30.0625C17.8949 30.0625 16.5775 29.6432 15.468 28.927C12.9631 29.1904 11 31.2871 11 33.8625V34.2188C11 35.2021 11.7979 36 12.7813 36H15.75V33.625C15.75 32.9682 16.2807 32.4375 16.9375 32.4375H21.6875C22.3443 32.4375 22.875 32.9682 22.875 33.625V36H25.8438C26.8272 36 27.625 35.2021 27.625 34.2188V33.8625C27.625 31.2871 25.6619 29.1904 23.157 28.927ZM21.0938 33.625C20.7672 33.625 20.5 33.8922 20.5 34.2188C20.5 34.5453 20.7672 34.8125 21.0938 34.8125C21.4203 34.8125 21.6875 34.5453 21.6875 34.2188C21.6875 33.8922 21.4203 33.625 21.0938 33.625ZM17.5313 33.625C17.2047 33.625 16.9375 33.8922 16.9375 34.2188V36H18.125V34.2188C18.125 33.8922 17.8578 33.625 17.5313 33.625Z" fill="#DCFF1C"/>
</g>
<rect x="32.3535" y="11" width="3.60343" height="9.00857" rx="0.900857" fill="#DCFF1C"/>
<rect x="28" y="14.605" width="3.60343" height="5.40514" rx="0.900857" fill="#DCFF1C"/>
<rect x="36.707" y="16.4059" width="3.60343" height="3.60343" rx="0.900857" fill="#DCFF1C"/>
<defs>
<clipPath id="clip0">
<rect width="16.625" height="19" fill="white" transform="translate(11 17)"/>
</clipPath>
</defs>
</svg>
