<?xml version="1.0" encoding="UTF-8"?>
<svg width="45px" height="45px" viewBox="0 0 45 45" version="1.1" xmlns="http://www.w3.org/2000/svg" xmlns:xlink="http://www.w3.org/1999/xlink">
    <title>Property 1=35</title>
    <defs>
        <linearGradient x1="77.2370741%" y1="-39.7423121%" x2="34.8153219%" y2="108.636512%" id="linearGradient-1">
            <stop stop-color="#DBFAFD" offset="0%"></stop>
            <stop stop-color="#2295FF" offset="100%"></stop>
        </linearGradient>
        <linearGradient x1="1.2377665%" y1="-73.7348332%" x2="65.901061%" y2="126.812443%" id="linearGradient-2">
            <stop stop-color="#36F6FF" offset="0%"></stop>
            <stop stop-color="#6887FF" offset="100%"></stop>
        </linearGradient>
    </defs>
    <g id="Page-1" stroke="none" stroke-width="1" fill="none" fill-rule="evenodd">
        <g id="Property-1=35">
            <circle id="Oval" fill="#35466D" fill-rule="nonzero" cx="22.5" cy="22.5" r="22.5"></circle>
            <g id="Group" transform="translate(14.738300, 8.000000)" fill-rule="nonzero">
                <polygon id="Path" fill="url(#linearGradient-1)" points="14.5187 22.7951 14.5187 12.207 7.2601 6.9146 3.55271368e-15 12.207 3.55271368e-15 22.7951 7.2601 28.0875"></polygon>
                <polygon id="Path" fill="url(#linearGradient-2)" points="7.2632 0 19.2618 8.75 14.5217 12.2059 7.2632 6.9135"></polygon>
            </g>
            <g id="Group" transform="translate(15.030300, 8.598900)" stroke="#05309F" stroke-width="0.9977">
                <path d="M6.9697,26.9011 L6.9696,27.1267 M13.824,21.9011 L13.9392,22.0163 M6.9696,27.1267 L0.0001,22.0163 L1.77635684e-15,11.7858 L6.9696,6.6754 M6.9696,27.1267 L13.9392,22.0163 M6.9696,6.6754 L13.9392,11.7858 M6.9696,6.6754 L6.9696,0 L18.4896,8.4529 L13.9392,11.7858 M13.9392,11.7858 L13.9392,22.0163" id="Shape"></path>
                <line x1="6.9697" y1="0" x2="6.9697" y2="6.6754" id="Path"></line>
                <line x1="13.9394" y1="11.786" x2="18.4898" y2="8.4531" id="Path"></line>
            </g>
        </g>
    </g>
</svg>