<svg width="17" height="17" viewBox="0 0 17 17" fill="none" xmlns="http://www.w3.org/2000/svg">
<path fill-rule="evenodd" clip-rule="evenodd" d="M12.308 2.44349C12.5168 2.35701 12.7406 2.3125 12.9666 2.3125C13.1926 2.3125 13.4163 2.35701 13.6251 2.44349C13.8339 2.52997 14.0236 2.65673 14.1834 2.81652C14.3432 2.97631 14.4699 3.16602 14.5564 3.3748C14.6429 3.58358 14.6874 3.80735 14.6874 4.03333C14.6874 4.25931 14.6429 4.48308 14.5564 4.69186C14.4699 4.90064 14.3432 5.09035 14.1834 5.25014L10.604 8.82951C10.3404 9.09311 10.0054 9.27219 9.6404 9.3452L7.9854 9.67645C7.801 9.71336 7.61034 9.65567 7.47733 9.52271C7.34433 9.38975 7.28657 9.19912 7.32341 9.0147L7.65403 7.3597C7.72728 6.99467 7.907 6.65902 8.17039 6.39589L11.7498 2.81652C11.9096 2.65673 12.0993 2.52997 12.308 2.44349Z" fill="#35466D"/>
<path fill-rule="evenodd" clip-rule="evenodd" d="M4.75 4.6875C4.56766 4.6875 4.3928 4.75993 4.26386 4.88886C4.13493 5.01779 4.0625 5.19266 4.0625 5.375V12.25C4.0625 12.4323 4.13493 12.6072 4.26386 12.7361C4.3928 12.8651 4.56766 12.9375 4.75 12.9375H11.625C11.8073 12.9375 11.9822 12.8651 12.1111 12.7361C12.2401 12.6072 12.3125 12.4323 12.3125 12.25V10.375C12.3125 10.0643 12.5643 9.8125 12.875 9.8125C13.1857 9.8125 13.4375 10.0643 13.4375 10.375V12.25C13.4375 12.7307 13.2465 13.1917 12.9066 13.5316C12.5667 13.8715 12.1057 14.0625 11.625 14.0625H4.75C4.26929 14.0625 3.80828 13.8715 3.46837 13.5316C3.12846 13.1917 2.9375 12.7307 2.9375 12.25V5.375C2.9375 4.89429 3.12846 4.43328 3.46837 4.09337C3.80828 3.75346 4.26929 3.5625 4.75 3.5625H6.625C6.93566 3.5625 7.1875 3.81434 7.1875 4.125C7.1875 4.43566 6.93566 4.6875 6.625 4.6875H4.75Z" fill="#35466D"/>
</svg>
