<svg width="12" height="11" viewBox="0 0 12 11" fill="none" xmlns="http://www.w3.org/2000/svg">
<path d="M7.22501 5.56455L10.9605 1.83719C11.1241 1.67358 11.216 1.45168 11.216 1.2203C11.216 0.988929 11.1241 0.767029 10.9605 0.603422C10.7969 0.439814 10.5751 0.3479 10.3437 0.3479C10.1124 0.3479 9.89052 0.439814 9.72694 0.603422L6.00011 4.33947L2.27327 0.603422C2.10969 0.439814 1.88782 0.3479 1.65648 0.3479C1.42513 0.3479 1.20327 0.439814 1.03968 0.603422C0.876098 0.767029 0.784197 0.988929 0.784197 1.2203C0.784197 1.45168 0.876098 1.67358 1.03968 1.83719L4.7752 5.56455L1.03968 9.29191C0.958258 9.37269 0.89363 9.46878 0.849526 9.57466C0.805422 9.68054 0.782715 9.7941 0.782715 9.9088C0.782715 10.0235 0.805422 10.1371 0.849526 10.2429C0.89363 10.3488 0.958258 10.4449 1.03968 10.5257C1.12044 10.6071 1.21652 10.6718 1.32239 10.7159C1.42825 10.76 1.5418 10.7827 1.65648 10.7827C1.77116 10.7827 1.88471 10.76 1.99057 10.7159C2.09643 10.6718 2.19251 10.6071 2.27327 10.5257L6.00011 6.78963L9.72694 10.5257C9.8077 10.6071 9.90378 10.6718 10.0096 10.7159C10.1155 10.76 10.2291 10.7827 10.3437 10.7827C10.4584 10.7827 10.572 10.76 10.6778 10.7159C10.7837 10.6718 10.8798 10.6071 10.9605 10.5257C11.042 10.4449 11.1066 10.3488 11.1507 10.2429C11.1948 10.1371 11.2175 10.0235 11.2175 9.9088C11.2175 9.7941 11.1948 9.68054 11.1507 9.57466C11.1066 9.46878 11.042 9.37269 10.9605 9.29191L7.22501 5.56455Z" fill="#35466D"/>
</svg>
