<svg fill="none" height="17" viewBox="0 0 17 17" width="17" xmlns="http://www.w3.org/2000/svg"><path d="m14.3364 8.3545c.2461-.32519.3824-.72363.3824-1.13818 0-.65772-.3677-1.28027-.9595-1.62744-.1524-.08936-.3258-.1364-.5025-.13623h-3.51266l.08789-1.8003c.02051-.43505-.1333-.84814-.43213-1.16308-.14665-.15523-.32358-.27874-.51985-.36289-.19627-.08416-.40771-.12716-.62126-.12637-.76172 0-1.43555.5127-1.6377 1.24658l-1.2583 4.55567h-1.89404c-.25928 0-.46875.20947-.46875.46875v5.33199c0 .2593.20947.4688.46875.4688h8.80815c.1347 0 .2666-.0264.3881-.0791.6973-.2974 1.147-.9785 1.147-1.7344 0-.1846-.0264-.3662-.0791-.542.2461-.3252.3823-.7236.3823-1.1382 0-.1845-.0263-.3662-.0791-.542.2461-.32515.3824-.72359.3824-1.13814-.003-.18457-.0293-.36768-.0821-.54346zm-10.28171 4.6626v-4.16016h1.18652v4.16016z" fill="#5b6681"/></svg>