<svg width="30" height="30" viewBox="0 0 30 30" fill="none" xmlns="http://www.w3.org/2000/svg">
<circle cx="15" cy="15" r="15" fill="#DCFF1C" style="fill: var(--circle-fill, #DCFF1C)" />
<path d="M24.7814 10.2997C24.1222 10.5918 23.4141 10.7892 22.6697 10.8784C23.4378 10.4188 24.0124 9.6954 24.2864 8.84326C23.5648 9.2719 22.775 9.57362 21.9513 9.7353C21.3975 9.14392 20.6638 8.75194 19.8644 8.62023C19.0649 8.48851 18.2443 8.62442 17.53 9.00687C16.8157 9.38931 16.2476 9.99688 15.914 10.7352C15.5804 11.4736 15.4999 12.3015 15.685 13.0903C14.2227 13.0169 12.7922 12.6368 11.4864 11.9748C10.1805 11.3128 9.02849 10.3835 8.105 9.24744C7.78923 9.79213 7.60767 10.4237 7.60767 11.0962C7.60731 11.7017 7.75642 12.2979 8.04175 12.832C8.32708 13.366 8.73981 13.8213 9.24333 14.1576C8.65939 14.139 8.08832 13.9812 7.57767 13.6974V13.7447C7.57761 14.5939 7.87136 15.417 8.40907 16.0743C8.94678 16.7316 9.69533 17.1826 10.5277 17.3508C9.986 17.4974 9.41806 17.519 8.86678 17.4139C9.10163 18.1446 9.5591 18.7836 10.1751 19.2414C10.7912 19.6991 11.5349 19.9528 12.3023 19.9669C10.9996 20.9895 9.39087 21.5442 7.73476 21.5418C7.4414 21.5419 7.14829 21.5247 6.85693 21.4905C8.53797 22.5713 10.4948 23.1449 12.4934 23.1427C19.2586 23.1427 22.957 17.5394 22.957 12.6798C22.957 12.5219 22.9531 12.3625 22.946 12.2046C23.6654 11.6843 24.2863 11.0401 24.7798 10.3021L24.7814 10.2997V10.2997Z" fill="#222426"/>
</svg>
