<svg width="28" height="18" viewBox="0 0 28 18" fill="none" xmlns="http://www.w3.org/2000/svg">
<g clip-path="url(#clip0)">
<path d="M8.03958 11.4812C8.09271 11.4812 8.14583 11.4812 8.19896 11.4812C10.3417 11.4812 12.4844 11.4812 14.6094 11.4812C14.9281 11.4812 15.2469 11.7114 15.2469 12.1187C15.2469 12.8271 15.2469 13.5354 15.2469 14.2437C15.2469 14.651 14.9281 14.8812 14.5917 14.8812C12.449 14.8635 10.324 14.8812 8.18125 14.8812C8.12812 14.8812 8.09271 14.8812 8.02187 14.8812C8.02187 14.9343 8.02187 14.9875 8.02187 15.0229C8.02187 15.7135 8.02187 16.4041 8.02187 17.0771C8.02187 17.3958 7.88021 17.6083 7.61458 17.6968C7.4375 17.7677 7.26042 17.7146 7.10104 17.626C6.18021 17.0948 5.27708 16.5635 4.35625 16.05C3.02812 15.2708 1.68229 14.4916 0.31875 13.7125C0.123958 13.6062 0 13.4291 0 13.1812C0 12.9333 0.123958 12.7739 0.336458 12.65C2.55 11.375 4.78125 10.0823 7.0125 8.80726C7.06562 8.77184 7.11875 8.73643 7.15417 8.71872C7.52604 8.50622 7.96875 8.71872 8.02187 9.12601C8.02187 9.17914 8.03958 9.23226 8.03958 9.28539C8.03958 9.97601 8.03958 10.6489 8.03958 11.3396C8.03958 11.375 8.03958 11.4281 8.03958 11.4812Z" fill="white"/>
<path d="M19.125 7.00101C19.0719 7.00101 19.0188 7.00101 18.9656 7.00101C16.8229 7.00101 14.6802 7.00101 12.5552 7.00101C12.2365 7.00101 11.9177 6.7708 11.9177 6.36351C11.9177 5.65518 11.9177 4.94685 11.9177 4.23851C11.9177 3.83122 12.2365 3.60101 12.5729 3.60101C14.7156 3.61872 16.8406 3.60101 18.9833 3.60101C19.0365 3.60101 19.0719 3.60101 19.1427 3.60101C19.1427 3.54789 19.1427 3.49476 19.1427 3.45935C19.1427 2.76872 19.1427 2.0781 19.1427 1.40518C19.1427 1.08643 19.2844 0.873929 19.55 0.785387C19.7271 0.714554 19.9042 0.767679 20.0636 0.856221C20.9844 1.38747 21.8875 1.91872 22.8083 2.43226C24.1542 3.21143 25.5177 3.9906 26.8636 4.76976C27.0761 4.89372 27.1823 5.0531 27.1823 5.30101C27.1823 5.54893 27.0583 5.7083 26.8458 5.83226C24.6146 7.10726 22.3833 8.39997 20.1698 9.69268C20.1167 9.7281 20.0636 9.76351 20.0281 9.78122C19.6563 9.99372 19.2136 9.78122 19.1604 9.37393C19.1604 9.3208 19.1427 9.26768 19.1427 9.21455C19.1427 8.52393 19.1427 7.85101 19.1427 7.16039C19.125 7.10726 19.125 7.07185 19.125 7.00101Z" fill="white"/>
</g>
<defs>
<clipPath id="clip0">
<rect width="27.1469" height="17" fill="white" transform="translate(0 0.75)"/>
</clipPath>
</defs>
</svg>
