<svg width="47" height="47" viewBox="0 0 47 47" fill="none" xmlns="http://www.w3.org/2000/svg">
<circle cx="23.5" cy="23.5" r="23.5" fill="#35466D"/>
<g clip-path="url(#clip0)">
<path d="M13.375 25.3125H13.876C14.7926 27.4092 16.8781 28.875 19.3125 28.875C21.7469 28.875 23.8324 27.4092 24.749 25.3125H25.25C25.5766 25.3125 25.8438 25.0453 25.8438 24.7188V21.1562C25.8438 20.8297 25.5766 20.5625 25.25 20.5625H24.749C23.8324 18.4658 21.7469 17 19.3125 17C16.8781 17 14.7926 18.4658 13.876 20.5625H13.375C13.0484 20.5625 12.7813 20.8297 12.7813 21.1562V24.7188C12.7813 25.0453 13.0484 25.3125 13.375 25.3125ZM14.8594 22.0469C14.8594 21.2268 15.6572 20.5625 16.6406 20.5625H21.9844C22.9678 20.5625 23.7656 21.2268 23.7656 22.0469V22.9375C23.7656 24.9043 22.1699 26.5 20.2031 26.5H18.4219C16.4551 26.5 14.8594 24.9043 14.8594 22.9375V22.0469ZM17.5313 24.7188L17.9766 23.3828L19.3125 22.9375L17.9766 22.4922L17.5313 21.1562L17.0859 22.4922L15.75 22.9375L17.0859 23.3828L17.5313 24.7188ZM23.157 28.927C22.0475 29.6432 20.7301 30.0625 19.3125 30.0625C17.8949 30.0625 16.5775 29.6432 15.468 28.927C12.9631 29.1904 11 31.2871 11 33.8625V34.2188C11 35.2021 11.7979 36 12.7813 36H15.75V33.625C15.75 32.9682 16.2807 32.4375 16.9375 32.4375H21.6875C22.3443 32.4375 22.875 32.9682 22.875 33.625V36H25.8438C26.8272 36 27.625 35.2021 27.625 34.2188V33.8625C27.625 31.2871 25.6619 29.1904 23.157 28.927ZM21.0938 33.625C20.7672 33.625 20.5 33.8922 20.5 34.2188C20.5 34.5453 20.7672 34.8125 21.0938 34.8125C21.4203 34.8125 21.6875 34.5453 21.6875 34.2188C21.6875 33.8922 21.4203 33.625 21.0938 33.625ZM17.5313 33.625C17.2047 33.625 16.9375 33.8922 16.9375 34.2188V36H18.125V34.2188C18.125 33.8922 17.8578 33.625 17.5313 33.625Z" fill="#DCFF1C"/>
</g>
<path d="M28 16.25C28 14.61 28 12.96 28 11.32C28 11.12 28.11 11 28.32 11C29.3 11 30.29 11 31.27 11C33.16 11 35.04 11 36.93 11C37.02 11 37.11 11.01 37.18 11.08C37.24 11.14 37.27 11.22 37.27 11.31C37.27 13.37 37.27 15.43 37.27 17.49C37.27 18.73 37.27 19.96 37.27 21.2C37.27 21.4 37.16 21.51 36.96 21.52C36.94 21.52 36.93 21.52 36.91 21.52C34.05 21.52 31.2 21.52 28.34 21.52C28.25 21.52 28.16 21.51 28.1 21.45C28.03 21.39 28 21.31 28 21.21C28 19.55 28 17.9 28 16.25ZM29.67 12.5C29.67 14.75 29.67 17.76 29.67 20C31.61 20 33.6 20 35.54 20C35.54 17.75 35.54 14.74 35.54 12.5C33.6 12.5 31.61 12.5 29.67 12.5Z" fill="#DCFF1C"/>
<path d="M30.4697 17.4355C30.4697 17.2835 30.5193 17.1461 30.569 17.0086C30.6682 16.7627 30.8005 16.5312 31.0404 16.3503C31.2058 16.2273 31.214 16.0682 31.1727 15.8945C31.1313 15.7281 31.0817 15.569 31.0486 15.4026C31.0156 15.2868 31.0155 15.1639 31.0321 15.0481C31.0486 14.9324 31.1065 14.8311 31.1975 14.7443C31.3381 14.614 31.52 14.5272 31.7268 14.5055C31.8756 14.4838 32.0162 14.5272 32.1155 14.614C32.2147 14.7009 32.2974 14.7949 32.3884 14.8962C32.4628 14.9758 32.529 15.0626 32.6034 15.1422C32.7192 15.2651 32.8432 15.3013 33.0169 15.2434C33.1575 15.1928 33.2898 15.1349 33.4139 15.0698C33.5462 15.0047 33.6785 14.9396 33.8274 14.9107C34.001 14.8745 34.1499 14.9179 34.2657 15.0409C34.5055 15.3013 34.5386 15.5835 34.3401 15.8656C34.2574 15.9814 34.1664 16.0899 34.0672 16.1911C33.8935 16.3648 33.8522 16.5601 33.9101 16.7699C33.9845 17.0231 34.0672 17.2763 34.1416 17.5295C34.1747 17.638 34.1995 17.7538 34.1995 17.8623C34.2161 18.1227 34.0837 18.3036 33.8026 18.3976C33.571 18.4772 33.3312 18.5062 33.0831 18.4989C32.9756 18.4917 32.868 18.47 32.7771 18.4121C32.6613 18.347 32.5538 18.2674 32.4545 18.1878C32.3222 18.0866 32.1982 17.9708 32.0658 17.8695C31.917 17.761 31.7516 17.7465 31.5779 17.8117C31.4704 17.8478 31.3712 17.8912 31.2719 17.9346C30.9494 18.0649 30.5193 17.8117 30.4945 17.5585C30.478 17.5223 30.4697 17.4789 30.4697 17.4355Z" fill="#DCFF1C"/>
<path d="M33.2303 13.8803C33.0003 13.8803 32.8203 13.7003 32.8203 13.4803C32.8203 13.2503 33.0003 13.0703 33.2303 13.0703C33.4603 13.0703 33.6403 13.2503 33.6403 13.4803C33.6403 13.7003 33.4603 13.8803 33.2303 13.8803Z" fill="#DCFF1C"/>
<defs>
<clipPath id="clip0">
<rect width="16.625" height="19" fill="white" transform="translate(11 17)"/>
</clipPath>
</defs>
</svg>
