<svg width="32" height="33" viewBox="0 0 32 33" fill="none" xmlns="http://www.w3.org/2000/svg">
<circle cx="16" cy="16.5" r="16" fill="#386EEC"/>
<path d="M20 12.5043C20 14.7011 18.1924 16.5 15.9957 16.5C13.7903 16.5 11.9914 14.6838 12 12.4697C12.0087 10.2643 13.8076 8.49138 16.013 8.50003C18.227 8.50868 20 10.2989 20 12.5043Z" fill="white"/>
<path d="M15.6049 26.4646C13.075 26.3605 10.5889 25.2591 8.84687 23.4293C8.3654 22.9263 7.9102 22.2932 8.01524 21.6081C8.10278 20.9489 8.67179 20.472 9.22329 20.1077C13.2326 17.4453 18.6513 17.4366 22.6869 20.047C23.3347 20.4633 24 21.0617 24 21.8249C24 22.3799 23.6411 22.8742 23.2647 23.2818C21.4526 25.2591 18.7914 26.4473 16.0952 26.4733C15.9288 26.4733 15.7713 26.4733 15.6049 26.4646Z" fill="white"/>
</svg>
