<svg width="16" height="16" viewBox="0 0 16 16" fill="none" xmlns="http://www.w3.org/2000/svg">
<path d="M13.8103 8.05455C14.0564 8.37975 14.1926 8.77819 14.1926 9.19274C14.1926 9.85045 13.825 10.473 13.2332 10.8202C13.0808 10.9095 12.9073 10.9566 12.7307 10.9564H9.21802L9.30591 12.7567C9.32642 13.1918 9.17261 13.6048 8.87378 13.9198C8.72713 14.075 8.5502 14.1985 8.35393 14.2827C8.15766 14.3668 7.94622 14.4098 7.73267 14.409C6.97095 14.409 6.29712 13.8964 6.09497 13.1625L4.83667 8.6068H2.94263C2.68335 8.6068 2.47388 8.39733 2.47388 8.13805V2.80602C2.47388 2.54674 2.68335 2.33727 2.94263 2.33727H11.7507C11.8855 2.33727 12.0173 2.36364 12.1389 2.41637C12.8362 2.71374 13.2859 3.39489 13.2859 4.15075C13.2859 4.33532 13.2595 4.51696 13.2068 4.69274C13.4529 5.01793 13.5891 5.41637 13.5891 5.83092C13.5891 6.01549 13.5627 6.19713 13.51 6.37291C13.7561 6.69811 13.8923 7.09655 13.8923 7.5111C13.8894 7.69567 13.863 7.87877 13.8103 8.05455ZM3.52856 3.39196V7.55211H4.71509V3.39196H3.52856ZM12.8508 8.56286L12.53 8.28454L12.7336 7.91246C12.8007 7.7899 12.8355 7.65228 12.8347 7.51256C12.8347 7.27086 12.7292 7.04088 12.5476 6.88268L12.2268 6.60436L12.4304 6.23229C12.4975 6.10973 12.5323 5.97211 12.5315 5.83239C12.5315 5.59069 12.426 5.36071 12.2444 5.2025L11.9236 4.92418L12.1272 4.55211C12.1943 4.42955 12.2291 4.29193 12.2283 4.15221C12.2283 3.82409 12.0349 3.52819 11.7361 3.39342H5.65259V7.59899L7.11011 12.8797C7.14769 13.0151 7.22837 13.1345 7.33992 13.2199C7.45146 13.3053 7.5878 13.352 7.72827 13.3529C7.8396 13.3529 7.94946 13.3207 8.03735 13.2547C8.18237 13.1464 8.26001 12.9823 8.25122 12.808L8.1106 9.90172H12.7161C12.9768 9.74205 13.1379 9.47252 13.1379 9.19274C13.1379 8.95104 13.0325 8.72252 12.8508 8.56286Z" fill="black" fill-opacity="0.45"/>
</svg>
