<svg width="40" height="41" viewBox="0 0 40 41" fill="none" xmlns="http://www.w3.org/2000/svg">
<circle cx="20" cy="20.5" r="20" fill="#386EEC"/>
<path fill-rule="evenodd" clip-rule="evenodd" d="M26.5273 12.494C26.5126 13.3768 26.2036 14.1861 25.6739 14.907C25.6151 14.9953 25.6004 15.0689 25.6298 15.1719C25.7034 15.4735 25.7733 15.7715 25.8432 16.0694L25.8432 16.0697C25.9131 16.3676 25.983 16.6654 26.0565 16.9669C26.1154 17.2023 26.0565 17.3936 25.8946 17.5555C25.7181 17.7173 25.5268 17.732 25.3061 17.6585C24.9309 17.5334 24.552 17.4083 24.1732 17.2833C23.7943 17.1582 23.4154 17.0331 23.0402 16.9081C22.9961 16.8934 22.9372 16.8934 22.8784 16.9081C21.9367 17.2465 20.9656 17.3789 19.9798 17.3495C18.8321 17.3348 17.7433 17.0846 16.7281 16.5549C15.9924 16.1724 15.345 15.6721 14.83 15.01C14.1826 14.1713 13.8442 13.2297 13.9178 12.1703C13.9913 11.1845 14.3886 10.3458 15.0507 9.61012C15.9482 8.6243 17.0812 8.02105 18.3613 7.72677C20.274 7.28537 22.1133 7.47664 23.8495 8.4036C24.9824 9.00686 25.8358 9.88968 26.2772 11.1109C26.4391 11.5523 26.5273 12.0231 26.5273 12.494ZM20.6216 10.3868C20.6216 10.1201 20.4054 9.9039 20.1388 9.9039C19.8721 9.9039 19.6559 10.1201 19.6559 10.3868V11.8362H18.2076C17.9409 11.8362 17.7247 12.0524 17.7247 12.319C17.7247 12.5857 17.9409 12.8019 18.2076 12.8019H19.6559V14.2496C19.6559 14.5163 19.8721 14.7325 20.1388 14.7325C20.4054 14.7325 20.6216 14.5163 20.6216 14.2496V12.8019H22.0704C22.3371 12.8019 22.5533 12.5857 22.5533 12.319C22.5533 12.0524 22.3371 11.8362 22.0704 11.8362H20.6216V10.3868ZM13.5376 18.0703C13.464 18.2616 13.6112 18.4529 13.8319 18.4529C13.8398 18.4449 13.8564 18.4413 13.8746 18.4373C13.8901 18.4339 13.9066 18.4302 13.9201 18.4235C14.522 18.2448 15.1299 18.0601 15.7323 17.8771L15.7329 17.8769L15.7334 17.8767L15.7341 17.8765L15.7373 17.8755C16.0757 17.7727 16.4123 17.6705 16.7452 17.5701C16.907 17.5259 16.9953 17.4229 16.9953 17.2905C16.9953 17.1581 16.9364 17.0845 16.7746 17.011C16.0536 16.702 15.4209 16.2753 14.906 15.6867C14.7294 15.466 14.4645 15.569 14.391 15.775C14.2512 16.1576 14.1077 16.5401 13.9643 16.9226L13.9643 16.9227C13.8208 17.3052 13.6774 17.6878 13.5376 18.0703ZM19.2515 32.175C19.1717 32.2991 19.1274 32.441 19.1008 32.5917C19.0653 32.769 19.0653 32.9464 19.0742 33.1326V35.4823C15.7048 35.2872 12.6812 33.8065 10.5 31.5188C10.7483 31.0312 11.0409 30.5523 11.3867 30.1267C11.6616 29.8075 11.9542 29.5061 12.2645 29.2223C12.6192 28.9031 12.8497 28.8499 13.3374 28.7878C14.801 28.588 16.2787 28.5756 17.7534 28.5633H17.7535H17.7535H17.7536H17.7536C18.3069 28.5587 18.8597 28.5541 19.4111 28.5396C21.7077 28.4864 24.0662 28.2292 26.0879 27.1386C26.2338 27.0602 26.3786 26.977 26.5238 26.8936C26.9699 26.6373 27.4194 26.379 27.9144 26.2519C28.5706 26.0746 29.3686 26.1899 29.7765 26.7307C30.2109 27.2982 30.0602 28.1583 29.608 28.7258C29.1558 29.2933 28.4819 29.6213 27.8258 29.9139C25.6445 30.8893 23.3214 31.6784 20.9274 31.6696C20.3156 31.6607 19.5885 31.6696 19.2515 32.175ZM28.1718 30.632C28.2162 30.7118 25.8044 31.6517 25.5827 31.7226C24.6783 32.0241 23.7473 32.2546 22.7985 32.4053C22.3286 32.4851 21.8498 32.5383 21.3798 32.5827C21.3174 32.5875 21.2015 32.5851 21.0632 32.5823C20.6909 32.5747 20.1557 32.5639 20.0587 32.6802C20.0011 32.7506 20.0266 33.0241 20.0453 33.2243L20.0453 33.2243C20.0525 33.3015 20.0587 33.3678 20.0587 33.4073V34.2319V35.4999C23.4281 35.4378 26.4783 34.0723 28.7393 31.8911C28.562 31.4743 28.3758 31.0487 28.1718 30.632ZM20.4041 23.9465C20.4129 22.2707 21.805 20.8963 23.4986 20.8963C25.1921 20.8963 26.602 22.3328 26.5842 24.0352C26.5754 25.6756 25.1301 27.0942 23.472 27.0942C21.7695 27.0854 20.3952 25.6844 20.4041 23.9465ZM15.6866 20.8963C14.0108 20.8963 12.5921 22.2884 12.5832 23.9554C12.5744 25.6667 13.9753 27.0942 15.6689 27.0942C17.3358 27.1031 18.7723 25.6844 18.7811 24.0352C18.79 22.3239 17.389 20.8963 15.6866 20.8963Z" fill="white"/>
</svg>
