<svg width="47" height="48" viewBox="0 0 47 48" fill="none" xmlns="http://www.w3.org/2000/svg">
<circle cx="23.5" cy="24" r="23.5" fill="#35466D"/>
<path d="M11 29.2169C11 26.4931 13.7856 24.2646 17.1903 24.2646C20.5949 24.2646 23.3805 26.4931 23.3805 29.2169V34.1691H11V29.2169Z" fill="#DCFF1C"/>
<path d="M24.6191 29.2169C24.6191 26.4931 27.4048 24.2646 30.8094 24.2646C34.214 24.2646 36.9997 26.4931 36.9997 29.2169V34.1691H24.6191V29.2169Z" fill="#DCFF1C"/>
<path d="M11.5502 22.2033H12.0145C12.8639 24.1464 14.7967 25.5048 17.0526 25.5048C19.3086 25.5048 21.2413 24.1464 22.0908 22.2033H22.555C22.8577 22.2033 23.1053 21.9557 23.1053 21.6531V18.3517C23.1053 18.049 22.8577 17.8014 22.555 17.8014H22.0908C21.2413 15.8584 19.3086 14.5 17.0526 14.5C14.7967 14.5 12.8639 15.8584 12.0145 17.8014H11.5502C11.2476 17.8014 11 18.049 11 18.3517V21.6531C11 21.9557 11.2476 22.2033 11.5502 22.2033ZM12.9258 19.177C12.9258 18.417 13.6652 17.8014 14.5766 17.8014H19.5287C20.44 17.8014 21.1794 18.417 21.1794 19.177V20.0024C21.1794 21.8251 19.7007 23.3038 17.878 23.3038H16.2273C14.4046 23.3038 12.9258 21.8251 12.9258 20.0024V19.177ZM15.4019 21.6531L15.8146 20.4151L17.0526 20.0024L15.8146 19.5897L15.4019 18.3517L14.9892 19.5897L13.7512 20.0024L14.9892 20.4151L15.4019 21.6531Z" fill="#DCFF1C"/>
<path d="M25.1694 22.2033H25.6336C26.4831 24.1464 28.4158 25.5048 30.6718 25.5048C32.9278 25.5048 34.8605 24.1464 35.7099 22.2033H36.1742C36.4768 22.2033 36.7244 21.9557 36.7244 21.6531V18.3517C36.7244 18.049 36.4768 17.8014 36.1742 17.8014H35.7099C34.8605 15.8584 32.9278 14.5 30.6718 14.5C28.4158 14.5 26.4831 15.8584 25.6336 17.8014H25.1694C24.8667 17.8014 24.6191 18.049 24.6191 18.3517V21.6531C24.6191 21.9557 24.8667 22.2033 25.1694 22.2033ZM26.545 19.177C26.545 18.417 27.2844 17.8014 28.1957 17.8014H33.1478C34.0592 17.8014 34.7986 18.417 34.7986 19.177V20.0024C34.7986 21.8251 33.3198 23.3038 31.4971 23.3038H29.8464C28.0237 23.3038 26.545 21.8251 26.545 20.0024V19.177ZM29.0211 21.6531L29.4337 20.4151L30.6718 20.0024L29.4337 19.5897L29.0211 18.3517L28.6084 19.5897L27.3703 20.0024L28.6084 20.4151L29.0211 21.6531Z" fill="#DCFF1C"/>
</svg>
