<svg width="47" height="47" viewBox="0 0 47 47" fill="none" xmlns="http://www.w3.org/2000/svg">
<circle cx="23.5" cy="23.5" r="23.5" fill="#35466D"/>
<path d="M18.1753 24.134L17.3506 26.6907H19.0001L18.1753 24.134Z" fill="#DCFF1C"/>
<path d="M34.0928 13H20.8969V17.1237H24.1959V18.7732H13.4742C12.0722 18.7732 11 19.8454 11 21.2474V30.3196C11 31.7217 12.0722 32.7938 13.4742 32.7938H14.299V37L19.4948 32.7938H25.0206V27.0206H34.0928C35.4948 27.0206 36.567 25.9485 36.567 24.5464V15.4742C36.567 14.0722 35.4948 13 34.0928 13V13ZM19.9072 29.4124L19.4948 28.0928H16.9381L16.4433 29.4124H14.4639L17.1856 22.0722H19.1649L21.8866 29.4124H19.9072ZM32.4433 22.8969V24.5464C31.3711 24.5464 30.2165 24.2165 29.2268 23.7217C28.2371 24.2165 27.0825 24.4639 25.9278 24.5464L25.8454 22.8969C26.4227 22.8969 27 22.8144 27.5773 22.6495C26.8351 21.9072 26.3402 21 26.0928 20.0103H27.8247C28.0722 20.7526 28.567 21.3299 29.1443 21.8247C30.0515 21.0825 30.6289 20.0103 30.7113 18.7732H25.7629V17.1237H28.2371V15.4742H29.8866V17.1237H32.6082L32.6907 17.9485C32.7732 19.6804 32.1134 21.4124 30.8763 22.6495C31.4536 22.8144 31.9485 22.8969 32.4433 22.8969V22.8969Z" fill="#DCFF1C"/>
</svg>
