<?xml version="1.0" encoding="UTF-8"?>
<svg width="45px" height="45px" viewBox="0 0 45 45" version="1.1" xmlns="http://www.w3.org/2000/svg" xmlns:xlink="http://www.w3.org/1999/xlink">
    <title>levele_up_65</title>
    <defs>
        <linearGradient x1="77.2370741%" y1="-39.7423121%" x2="34.8153219%" y2="108.636512%" id="linearGradient-1">
            <stop stop-color="#DBFAFD" offset="0%"></stop>
            <stop stop-color="#2295FF" offset="100%"></stop>
        </linearGradient>
        <linearGradient x1="50%" y1="0%" x2="49.9959732%" y2="170.507705%" id="linearGradient-2">
            <stop stop-color="#0751F2" offset="0%"></stop>
            <stop stop-color="#3CE9FF" offset="100%"></stop>
        </linearGradient>
        <linearGradient x1="50%" y1="0%" x2="50%" y2="100%" id="linearGradient-3">
            <stop stop-color="#6887FF" offset="0%"></stop>
            <stop stop-color="#0751F2" offset="100%"></stop>
        </linearGradient>
        <linearGradient x1="1.2377665%" y1="-73.7348332%" x2="65.901061%" y2="126.812443%" id="linearGradient-4">
            <stop stop-color="#36F6FF" offset="0%"></stop>
            <stop stop-color="#6887FF" offset="100%"></stop>
        </linearGradient>
    </defs>
    <g id="Page-1" stroke="none" stroke-width="1" fill="none" fill-rule="evenodd">
        <g id="levele_up_65">
            <circle id="Oval" fill="#35466D" fill-rule="nonzero" cx="22.5" cy="22.5" r="22.5"></circle>
            <g id="Group" transform="translate(15.738300, 5.000000)" fill-rule="nonzero">
                <polygon id="Path" fill="url(#linearGradient-1)" points="14.5187 22.7951 14.5187 12.207 7.2601 6.9146 3.55271368e-15 12.207 3.55271368e-15 22.7951 7.2601 28.0875"></polygon>
                <polygon id="Path" fill="url(#linearGradient-2)" points="7.2632 35.0001 7.2632 28.0867 14.5217 22.7942 19.2618 26.2501"></polygon>
                <polygon id="Path" fill="url(#linearGradient-3)" points="14.5205 12.206 19.2605 8.75 19.2605 26.25 14.5205 22.794"></polygon>
                <polygon id="Path" fill="url(#linearGradient-4)" points="7.2632 0 19.2618 8.75 14.5217 12.2059 7.2632 6.9135"></polygon>
            </g>
            <g id="Group" transform="translate(16.030300, 5.598900)" stroke="#05309F" stroke-width="0.9977">
                <path d="M6.9696,27.1267 L0.0001,22.0163 L-3.55271368e-15,11.7858 L6.9696,6.6754 M6.9696,27.1267 L13.9392,22.0163 L13.9392,11.7858 L6.9696,6.6754 M6.9696,27.1267 L6.9696,33.8117 L18.4896,25.3588 L18.4896,8.4529 L6.9696,0 L6.9696,6.6754" id="Shape"></path>
                <line x1="6.9697" y1="0" x2="6.9697" y2="6.6754" id="Path"></line>
                <line x1="13.9394" y1="11.786" x2="18.4898" y2="8.4531" id="Path"></line>
                <line x1="13.9394" y1="22.0163" x2="18.4898" y2="25.3589" id="Path"></line>
                <line x1="6.9697" y1="27.1267" x2="6.9697" y2="33.8118" id="Path"></line>
            </g>
        </g>
    </g>
</svg>