<svg width="47" height="48" viewBox="0 0 47 48" fill="none" xmlns="http://www.w3.org/2000/svg">
<circle cx="23.5" cy="24" r="23.5" fill="#35466D"/>
<g clip-path="url(#clip0)">
<path d="M13.375 25.8125H13.876C14.7926 27.9092 16.8781 29.375 19.3125 29.375C21.7469 29.375 23.8324 27.9092 24.749 25.8125H25.25C25.5766 25.8125 25.8438 25.5453 25.8438 25.2188V21.6562C25.8438 21.3297 25.5766 21.0625 25.25 21.0625H24.749C23.8324 18.9658 21.7469 17.5 19.3125 17.5C16.8781 17.5 14.7926 18.9658 13.876 21.0625H13.375C13.0484 21.0625 12.7813 21.3297 12.7813 21.6562V25.2188C12.7813 25.5453 13.0484 25.8125 13.375 25.8125ZM14.8594 22.5469C14.8594 21.7268 15.6572 21.0625 16.6406 21.0625H21.9844C22.9678 21.0625 23.7656 21.7268 23.7656 22.5469V23.4375C23.7656 25.4043 22.1699 27 20.2031 27H18.4219C16.4551 27 14.8594 25.4043 14.8594 23.4375V22.5469ZM17.5313 25.2188L17.9766 23.8828L19.3125 23.4375L17.9766 22.9922L17.5313 21.6562L17.0859 22.9922L15.75 23.4375L17.0859 23.8828L17.5313 25.2188ZM23.157 29.427C22.0475 30.1432 20.7301 30.5625 19.3125 30.5625C17.8949 30.5625 16.5775 30.1432 15.468 29.427C12.9631 29.6904 11 31.7871 11 34.3625V34.7188C11 35.7021 11.7979 36.5 12.7813 36.5H15.75V34.125C15.75 33.4682 16.2807 32.9375 16.9375 32.9375H21.6875C22.3443 32.9375 22.875 33.4682 22.875 34.125V36.5H25.8438C26.8272 36.5 27.625 35.7021 27.625 34.7188V34.3625C27.625 31.7871 25.6619 29.6904 23.157 29.427ZM21.0938 34.125C20.7672 34.125 20.5 34.3922 20.5 34.7188C20.5 35.0453 20.7672 35.3125 21.0938 35.3125C21.4203 35.3125 21.6875 35.0453 21.6875 34.7188C21.6875 34.3922 21.4203 34.125 21.0938 34.125ZM17.5313 34.125C17.2047 34.125 16.9375 34.3922 16.9375 34.7188V36.5H18.125V34.7188C18.125 34.3922 17.8578 34.125 17.5313 34.125Z" fill="#DCFF1C"/>
</g>
<path d="M31.3134 19.9614C31.3134 19.9981 31.3134 20.0348 31.3134 20.0715C31.3134 21.5506 31.3134 23.0297 31.3134 24.4966C31.3134 24.7167 31.1544 24.9367 30.8733 24.9367C30.3843 24.9367 29.8953 24.9367 29.4064 24.9367C29.1252 24.9367 28.9663 24.7167 28.9663 24.4844C28.9785 23.0053 28.9663 21.5384 28.9663 20.0592C28.9663 20.0226 28.9663 19.9981 28.9663 19.9492C28.9296 19.9492 28.893 19.9492 28.8685 19.9492C28.3918 19.9492 27.915 19.9492 27.4505 19.9492C27.2305 19.9492 27.0838 19.8514 27.0227 19.6681C26.9738 19.5458 27.0104 19.4236 27.0716 19.3135C27.4383 18.6779 27.805 18.0545 28.1595 17.4188C28.6974 16.4898 29.2352 15.5485 29.7731 14.6195C29.8587 14.4728 29.9687 14.3994 30.1398 14.3994C30.311 14.3994 30.421 14.485 30.5066 14.6317C31.3867 16.1719 32.2791 17.7122 33.1714 19.2402C33.1959 19.2769 33.2203 19.3135 33.2326 19.338C33.3793 19.5947 33.2326 19.9003 32.9514 19.937C32.9147 19.937 32.8781 19.9492 32.8414 19.9492C32.3646 19.9492 31.9001 19.9492 31.4234 19.9492C31.3867 19.9614 31.3623 19.9614 31.3134 19.9614Z" fill="#DCFF1C"/>
<path d="M37.6093 17.0498C37.6093 17.0865 37.6093 17.1231 37.6093 17.1598C37.6093 18.6389 37.6093 20.1181 37.6093 21.585C37.6093 21.805 37.4503 22.0251 37.1692 22.0251C36.6802 22.0251 36.1912 22.0251 35.7023 22.0251C35.4211 22.0251 35.2622 21.805 35.2622 21.5728C35.2744 20.0936 35.2622 18.6267 35.2622 17.1476C35.2622 17.1109 35.2622 17.0865 35.2622 17.0376C35.2255 17.0376 35.1889 17.0376 35.1644 17.0376C34.6877 17.0376 34.2109 17.0376 33.7464 17.0376C33.5264 17.0376 33.3797 16.9398 33.3186 16.7564C33.2697 16.6342 33.3063 16.5119 33.3675 16.4019C33.7342 15.7663 34.1009 15.1428 34.4554 14.5072C34.9933 13.5781 35.5311 12.6369 36.069 11.7078C36.1546 11.5856 36.2768 11.5 36.4357 11.5C36.6069 11.5 36.7169 11.5856 36.8025 11.7323C37.6826 13.2725 38.575 14.8128 39.4673 16.3408C39.4918 16.3775 39.5162 16.4141 39.5285 16.4386C39.6752 16.6953 39.5285 17.0009 39.2473 17.0376C39.2106 17.0376 39.174 17.0498 39.1373 17.0498C38.6605 17.0498 38.196 17.0498 37.7193 17.0498C37.6826 17.0498 37.6582 17.0498 37.6093 17.0498Z" fill="#DCFF1C"/>
<defs>
<clipPath id="clip0">
<rect width="16.625" height="19" fill="white" transform="translate(11 17.5)"/>
</clipPath>
</defs>
</svg>
