<svg width="47" height="48" viewBox="0 0 47 48" fill="none" xmlns="http://www.w3.org/2000/svg">
<circle cx="23.5" cy="24" r="23.5" fill="#35466D"/>
<path d="M34.1562 30.8125L34.6953 29.1953L36.3125 28.6562L34.6953 28.1172L34.1562 26.5L33.6172 28.1172L32 28.6562L33.6172 29.1953L34.1562 30.8125Z" fill="#DCFF1C"/>
<path d="M12.1562 30.8125L12.6953 29.1953L14.3125 28.6562L12.6953 28.1172L12.1562 26.5L11.6172 28.1172L10 28.6562L11.6172 29.1953L12.1562 30.8125Z" fill="#DCFF1C"/>
<path d="M7.71875 31.5625H8.3252C9.43477 34.1006 11.9594 35.875 14.9063 35.875C17.8531 35.875 20.3777 34.1006 21.4873 31.5625H22.0938C22.4891 31.5625 22.8125 31.2391 22.8125 30.8438V26.5312C22.8125 26.1359 22.4891 25.8125 22.0938 25.8125H21.4873C20.3777 23.2744 17.8531 21.5 14.9063 21.5C11.9594 21.5 9.43477 23.2744 8.3252 25.8125H7.71875C7.32344 25.8125 7 26.1359 7 26.5312V30.8438C7 31.2391 7.32344 31.5625 7.71875 31.5625ZM9.51563 27.6094C9.51563 26.6166 10.4814 25.8125 11.6719 25.8125H18.1406C19.3311 25.8125 20.2969 26.6166 20.2969 27.6094V28.6875C20.2969 31.0684 18.3652 33 15.9844 33H13.8281C11.4473 33 9.51563 31.0684 9.51563 28.6875V27.6094Z" fill="#DCFF1C"/>
<path d="M24.7188 31.5625H25.3252C26.4348 34.1006 28.9594 35.875 31.9063 35.875C34.8531 35.875 37.3777 34.1006 38.4873 31.5625H39.0938C39.4891 31.5625 39.8125 31.2391 39.8125 30.8438V26.5312C39.8125 26.1359 39.4891 25.8125 39.0938 25.8125H38.4873C37.3777 23.2744 34.8531 21.5 31.9063 21.5C28.9594 21.5 26.4348 23.2744 25.3252 25.8125H24.7188C24.3234 25.8125 24 26.1359 24 26.5312V30.8438C24 31.2391 24.3234 31.5625 24.7188 31.5625ZM26.5156 27.6094C26.5156 26.6166 27.4814 25.8125 28.6719 25.8125H35.1406C36.3311 25.8125 37.2969 26.6166 37.2969 27.6094V28.6875C37.2969 31.0684 35.3652 33 32.9844 33H30.8281C28.4473 33 26.5156 31.0684 26.5156 28.6875V27.6094Z" fill="#DCFF1C"/>
<path d="M28.8798 14.059C28.8663 14.865 28.5843 15.6037 28.1007 16.2619C28.047 16.3425 28.0335 16.4097 28.0604 16.5037C28.1947 17.0544 28.3156 17.5917 28.4499 18.1424C28.5037 18.3573 28.4499 18.5319 28.3022 18.6797C28.141 18.8274 27.9664 18.8409 27.7649 18.7737C27.0799 18.5454 26.3814 18.317 25.6964 18.0887C25.6561 18.0752 25.6023 18.0752 25.5486 18.0887C24.6889 18.3976 23.8024 18.5185 22.9025 18.4916C21.8548 18.4782 20.8608 18.2499 19.934 17.7663C19.2624 17.4171 18.6714 16.9604 18.2012 16.3559C17.6102 15.5903 17.3013 14.7306 17.3684 13.7635C17.4356 12.8636 17.7983 12.0979 18.4027 11.4263C19.2221 10.5264 20.2563 9.97567 21.4249 9.70702C23.1711 9.30406 24.8501 9.47868 26.4351 10.3249C27.4694 10.8756 28.2485 11.6815 28.6514 12.7964C28.7992 13.1994 28.8798 13.6292 28.8798 14.059Z" fill="#DCFF1C"/>
<path d="M17.2861 19.5004C17.0846 19.5004 16.9503 19.3258 17.0175 19.1512C17.2727 18.4527 17.5413 17.7542 17.7965 17.0558C17.8637 16.8677 18.1055 16.7737 18.2667 16.9752C18.7368 17.5124 19.3144 17.902 19.9725 18.1841C20.1203 18.2512 20.174 18.3184 20.174 18.4393C20.174 18.5602 20.0934 18.6542 19.9457 18.6945C19.0994 18.9497 18.2264 19.2183 17.3667 19.4735C17.3398 19.487 17.2995 19.487 17.2861 19.5004Z" fill="#DCFF1C"/>
</svg>
