<svg width="40" height="30" viewBox="0 0 40 30" fill="none" xmlns="http://www.w3.org/2000/svg">
<path d="M39.7289 12.0342C39.285 9.70777 38.3105 7.515 36.8813 5.62639C36.1785 4.67638 35.3678 3.81127 34.4653 3.04847C33.5559 2.28275 32.5474 1.64323 31.467 1.14724C31.3966 1.11626 31.3332 1.08246 31.2649 1.05359L31.0579 0.970494L30.6431 0.804313C30.6086 0.790934 30.5727 0.776146 30.5389 0.764176L30.4333 0.728968L30.222 0.658552L29.7995 0.51772L29.3644 0.401534L29.1482 0.345201L29.0404 0.317739L28.9306 0.29591L28.494 0.212819C28.4236 0.198736 28.3475 0.183244 28.2743 0.170569L28.0539 0.140291C26.8763 -0.0282879 25.6815 -0.0403634 24.5007 0.104379C23.3869 0.250182 22.2939 0.525493 21.244 0.924724C20.944 0.814875 20.6405 0.713476 20.3335 0.627569C19.7668 0.462134 19.1901 0.333011 18.6069 0.240985C18.0264 0.145952 17.441 0.0834195 16.8535 0.0536791L16.6338 0.0417084L16.4141 0.0367793C16.2677 0.0367793 16.1212 0.0297377 15.9747 0.0283293C15.6825 0.0346668 15.3889 0.0283293 15.0974 0.04875L14.6601 0.0719872L14.2235 0.107195L14.0052 0.124799L13.7883 0.148741L13.3539 0.198032C12.1862 0.342566 11.0378 0.614828 9.92953 1.00993C7.69557 1.80557 5.68421 3.12378 4.06317 4.85464C2.44803 6.59098 1.26266 8.68194 0.60227 10.9595C-0.0581175 13.2371 -0.175105 15.6379 0.260706 17.9689C0.704628 20.2954 1.67909 22.4881 3.10833 24.3767C3.81118 25.3266 4.62166 26.192 5.5236 26.9554C6.43349 27.7207 7.44221 28.3602 8.52262 28.8566C8.59303 28.8876 8.65641 28.9214 8.72471 28.951L8.93174 29.0333L9.34649 29.1995C9.38099 29.2129 9.4169 29.2277 9.45 29.2404L9.55632 29.2749L9.76757 29.3453L10.1901 29.4861L10.6217 29.5988L10.8379 29.6551L10.9456 29.6826L11.0548 29.7044L11.4928 29.791C11.5632 29.8044 11.6385 29.8199 11.7118 29.8326L11.9329 29.8628C13.1105 30.0314 14.3053 30.0435 15.4861 29.8988C16.6004 29.7549 17.6941 29.4813 18.7449 29.0833C19.0449 29.1932 19.3484 29.2946 19.6554 29.3812C20.2222 29.5461 20.7989 29.675 21.382 29.7671C21.9626 29.8612 22.5479 29.9228 23.1354 29.9516L23.355 29.9635L23.5747 29.9685C23.7212 29.9685 23.8677 29.9755 24.0141 29.9769C24.3064 29.9706 24.5993 29.9769 24.8915 29.9565L25.3288 29.9347L25.7654 29.8995L25.983 29.8819L26.2006 29.8579L26.635 29.8086C27.8037 29.6638 28.953 29.391 30.0622 28.9953C32.2961 28.1995 34.3074 26.8813 35.9285 25.1506C37.5437 23.4143 38.729 21.3233 39.3894 19.0457C40.0498 16.7681 40.1668 14.3674 39.731 12.0364L39.7289 12.0342ZM21.3468 2.08307C21.9313 2.32322 22.4963 2.60832 23.0368 2.9358C23.9698 3.50612 24.8236 4.19699 25.576 4.99054C26.3327 5.78984 26.9982 6.67075 27.5603 7.61705C28.1273 8.56839 28.606 9.56967 28.9904 10.6083C29.1559 11.0505 29.3038 11.4998 29.4369 11.9526C29.2449 11.7648 29.0494 11.5822 28.8503 11.4047C28.1704 10.7947 27.4539 10.2268 26.7047 9.70418C25.9522 9.18197 25.1679 8.70716 24.3564 8.28248C23.5405 7.8586 22.6963 7.49157 21.8298 7.18399C21.7214 7.14597 21.6137 7.10513 21.5038 7.06992L21.1743 6.965C20.956 6.89459 20.7328 6.83191 20.5117 6.76854C20.2905 6.70517 20.0645 6.65306 19.8413 6.59673L19.6723 6.55025L19.4998 6.51364C19.385 6.48829 19.2688 6.46857 19.1533 6.44322C18.2191 6.27634 17.2655 6.24645 16.3226 6.3545C16.1205 6.37844 15.9198 6.41083 15.7198 6.44885C15.8804 6.22915 16.0473 6.01415 16.2205 5.80384C16.9194 4.96443 17.7242 4.2191 18.6146 3.58645C19.4621 2.97807 20.3793 2.47335 21.3468 2.08307ZM18.6421 27.9201C18.0573 27.6805 17.4923 27.3954 16.9521 27.0673C16.0183 26.497 15.1636 25.8061 14.4101 25.0126C13.6539 24.2129 12.9884 23.3321 12.4258 22.3861C11.8593 21.4346 11.3808 20.4333 10.9963 19.3948C10.8309 18.9526 10.6823 18.5034 10.5499 18.0506C10.7419 18.2384 10.9374 18.421 11.1365 18.5984C11.8163 19.2083 12.5325 19.7762 13.2813 20.299C14.0352 20.8211 14.8207 21.2961 15.6332 21.7214C16.4494 22.1456 17.2938 22.5131 18.1605 22.8213C18.2689 22.8593 18.3766 22.9001 18.4865 22.9353L18.816 23.0403C19.0343 23.1107 19.2575 23.1733 19.4786 23.2367C19.6998 23.3001 19.9258 23.3522 20.149 23.4085L20.3173 23.4501L20.4898 23.4867C20.6046 23.512 20.7208 23.5318 20.8363 23.5571C21.7705 23.724 22.7241 23.7539 23.667 23.6458C23.8691 23.6219 24.0698 23.5895 24.2698 23.5515C24.1092 23.7712 23.9423 23.9862 23.7691 24.1965C23.0708 25.0337 22.267 25.7769 21.3778 26.4075C20.5297 27.0194 19.6112 27.5272 18.6421 27.9201ZM38.3438 18.7428C37.7356 20.8581 36.6388 22.801 35.142 24.4148C33.6395 26.0237 31.7743 27.2501 29.7016 27.9919C28.6662 28.3636 27.5929 28.6201 26.5012 28.7566L26.0879 28.8045L25.8809 28.8277L25.6738 28.8446L25.2591 28.8791L24.8443 28.9003C24.5683 28.9186 24.2923 28.9143 24.0156 28.9207C23.8747 28.9207 23.7395 28.9158 23.6022 28.9136L23.3952 28.9094L23.1889 28.8981C22.6393 28.873 22.0916 28.8173 21.5482 28.7313C21.0907 28.6597 20.6375 28.5631 20.1906 28.4419C20.8306 28.1146 21.4447 27.7392 22.0277 27.3187C22.9939 26.6291 23.8668 25.8172 24.6247 24.9035C25.1037 24.3204 25.5396 23.7031 25.9288 23.0564C26.09 22.9896 26.2506 22.9191 26.4069 22.841C26.8366 22.628 27.2442 22.373 27.6237 22.0798C28.0006 21.7872 28.3495 21.4603 28.6658 21.1031L28.6708 21.0968L28.6757 21.0925C28.8777 20.8588 29.0623 20.6105 29.2277 20.3497C29.4059 20.0706 29.5438 19.7679 29.6376 19.4504C29.6891 19.2693 29.7149 19.0818 29.7143 18.8935C29.7165 18.6615 29.6551 18.4333 29.5369 18.2337C29.4627 18.1108 29.3624 18.0058 29.2432 17.926C29.1239 17.8462 28.9886 17.7935 28.8468 17.7717C28.7138 17.7518 28.5782 17.7578 28.4475 17.7893C28.3314 17.8163 28.2197 17.8597 28.1159 17.9182C28.023 17.971 27.9361 18.0338 27.8567 18.1055L27.7589 18.1956L27.7518 18.2027C27.8202 17.7113 27.8323 17.2138 27.7877 16.7197C27.7793 16.5634 27.7462 16.4071 27.7237 16.2515C27.7131 16.1733 27.692 16.0958 27.6744 16.0184L27.6187 15.7867C27.5313 15.4765 27.4134 15.1758 27.2667 14.8889L27.2117 14.7805C27.1934 14.7446 27.1702 14.71 27.1498 14.6748L27.0209 14.4636C26.9273 14.3272 26.8259 14.1962 26.7174 14.0714C26.6078 13.9448 26.4902 13.8253 26.3653 13.7137C26.2353 13.6029 26.0974 13.5017 25.9527 13.4109C25.6548 13.2214 25.3247 13.088 24.9788 13.0172C24.6191 12.949 24.2487 12.9603 23.8937 13.0503C23.5432 13.141 23.2155 13.3041 22.9318 13.5292C22.8614 13.5827 22.8009 13.644 22.7354 13.7017C22.7037 13.7313 22.6699 13.7601 22.6403 13.7911L22.5558 13.8862C22.5009 13.951 22.4396 14.0129 22.3911 14.0805L22.2453 14.2847C22.1982 14.3527 22.155 14.4232 22.1157 14.496C22.0756 14.5664 22.0326 14.6368 21.996 14.7072L21.8946 14.9255C21.8593 14.9969 21.828 15.0703 21.801 15.1452L21.7193 15.3677C21.7059 15.4043 21.6911 15.4417 21.6799 15.479L21.6475 15.591C21.6059 15.7416 21.5566 15.886 21.5278 16.0451C21.4989 16.2043 21.4693 16.3585 21.4468 16.5155C21.4369 16.5944 21.432 16.6732 21.4249 16.7528L21.4158 16.8711L21.4123 16.9901C21.4015 17.3071 21.4203 17.6244 21.4686 17.9379C21.5382 18.4168 21.6807 18.8823 21.8911 19.3181L22.0101 19.5349C22.0292 19.5717 22.0506 19.6072 22.0742 19.6413L22.1446 19.7462C22.3356 20.0312 22.5704 20.2843 22.8403 20.4961C23.1235 20.7101 23.4453 20.8674 23.7881 20.9595C23.9584 21.0042 24.1323 21.0341 24.3078 21.0489L24.5676 21.0531H24.6324L24.6958 21.0475L24.8225 21.0355C24.9886 21.0186 25.1532 20.9904 25.3154 20.951C25.3957 20.9313 25.4725 20.9052 25.5506 20.8806C25.6285 20.8588 25.7052 20.8327 25.7802 20.8024C25.8076 20.7919 25.8337 20.7799 25.8605 20.7693C25.7633 20.9956 25.66 21.2191 25.5506 21.4397C25.4309 21.6796 25.3044 21.9166 25.1711 22.1509C24.6455 22.286 24.1066 22.362 23.5642 22.3776C23.3579 22.3847 23.1508 22.3861 22.9438 22.3776C22.7368 22.3692 22.5298 22.3586 22.3228 22.3417C21.9087 22.3037 21.4961 22.246 21.0848 22.1685C20.8785 22.1284 20.6778 22.0882 20.4687 22.0361C20.2596 21.984 20.0518 21.9404 19.8469 21.8798C19.642 21.8192 19.4336 21.7685 19.2301 21.7016L18.9238 21.6052C18.8217 21.5735 18.7217 21.5348 18.6203 21.501C17.8095 21.2189 17.017 20.8868 16.2473 20.5067C15.4766 20.1212 14.7279 19.6933 14.0045 19.2251C13.644 18.9878 13.2849 18.7463 12.9356 18.4907C12.5863 18.2351 12.2441 17.971 11.9075 17.6985C11.5709 17.426 11.2435 17.1422 10.9217 16.8535C10.7626 16.7075 10.6055 16.5596 10.4506 16.4099C10.3741 16.3352 10.2983 16.2599 10.2232 16.1839C10.1527 16.1092 10.0711 16.0282 10.0119 15.9606L10.0063 15.9536C9.93491 15.8695 9.83807 15.8109 9.73043 15.7867C9.62279 15.7625 9.51021 15.7741 9.40971 15.8196C9.30921 15.8651 9.22628 15.9421 9.17345 16.039C9.12062 16.1358 9.10078 16.2472 9.11693 16.3564C9.1296 16.4416 9.14087 16.5106 9.15425 16.5852L9.1958 16.8042C9.22396 16.9493 9.25494 17.0922 9.28734 17.2352C9.35259 17.5211 9.423 17.8046 9.49858 18.0858C9.65444 18.6491 9.834 19.2042 10.0373 19.7511C10.442 20.8486 10.9459 21.9068 11.5428 22.9128C12.1428 23.9262 12.8534 24.8699 13.6616 25.7266C14.4753 26.5867 15.3987 27.336 16.4078 27.9553C16.6702 28.1158 16.938 28.2668 17.2113 28.4081C16.6012 28.58 15.9798 28.7085 15.3516 28.7925C14.2708 28.9257 13.1772 28.9157 12.099 28.763L11.897 28.7362C11.8265 28.7242 11.7639 28.7101 11.697 28.6975L11.2977 28.6193L11.1977 28.6003L11.0991 28.5749L10.902 28.5235L10.5084 28.4214L10.1211 28.2947L9.92812 28.2313L9.83095 28.1996C9.79926 28.1884 9.76828 28.175 9.73659 28.1623L9.35846 28.0116L9.16904 27.9363C9.10707 27.9102 9.04651 27.8785 8.98455 27.8504C7.99499 27.396 7.07126 26.8103 6.23832 26.109C5.40112 25.4017 4.64875 24.5997 3.99628 23.7191C2.66381 21.9656 1.75434 19.9281 1.33878 17.7654C0.931445 15.6027 1.03661 13.3747 1.64584 11.26C2.25507 9.14533 3.3514 7.20284 4.8469 5.58837C6.34921 3.97963 8.21422 2.75319 10.2865 2.01124C11.3223 1.63961 12.3958 1.38315 13.4877 1.24652L13.901 1.19864L14.108 1.1754L14.315 1.1585L14.7298 1.124L15.1438 1.10288C15.4206 1.08457 15.6966 1.08879 15.9733 1.08246C16.1142 1.08246 16.2487 1.08738 16.3867 1.0895L16.5937 1.09372L16.8 1.10499C17.3494 1.13085 17.8969 1.18727 18.44 1.27399C18.8975 1.34558 19.3507 1.4422 19.7976 1.5634C19.1574 1.89158 18.5433 2.26823 17.9605 2.69005C16.9944 3.37991 16.1215 4.19172 15.3635 5.10532C14.8844 5.68841 14.4486 6.30572 14.0594 6.95233C13.8975 7.02274 13.7376 7.09316 13.5813 7.1678C13.1516 7.38076 12.744 7.63573 12.3645 7.92899C11.9875 8.22173 11.6384 8.54867 11.3217 8.90566L11.3174 8.912L11.3125 8.91693C11.1103 9.15025 10.9257 9.39833 10.7604 9.65911C10.5832 9.9372 10.4458 10.2387 10.352 10.5548C10.3005 10.736 10.2747 10.9235 10.2753 11.1118C10.2729 11.3438 10.3343 11.572 10.4527 11.7716C10.5269 11.8944 10.6272 11.9994 10.7464 12.0792C10.8657 12.1591 11.001 12.2117 11.1428 12.2335C11.2758 12.2534 11.4114 12.2475 11.5421 12.2159C11.658 12.1891 11.7695 12.1457 11.873 12.0871C11.9663 12.0344 12.0534 11.9716 12.1328 11.8997L12.2307 11.8096L12.2378 11.8026C12.1694 12.2939 12.1573 12.7915 12.2019 13.2855C12.2103 13.4419 12.2434 13.5982 12.2659 13.7538C12.2765 13.832 12.2976 13.9094 12.3152 13.9869L12.3709 14.2185C12.4583 14.5287 12.5762 14.8294 12.7229 15.1163L12.7779 15.2248C12.7962 15.2607 12.8194 15.2952 12.8398 15.3304L12.9687 15.5417C13.0623 15.6781 13.1636 15.809 13.2722 15.9339C13.3818 16.0605 13.4994 16.18 13.6243 16.2916C13.7543 16.4024 13.8922 16.5036 14.0369 16.5944C14.3348 16.7838 14.6649 16.9172 15.0108 16.988C15.3705 17.0562 15.7409 17.0449 16.0959 16.9549C16.4464 16.8641 16.774 16.701 17.0577 16.4761C17.1282 16.4226 17.1887 16.3613 17.2542 16.3036C17.2859 16.274 17.3197 16.2458 17.3493 16.2141L17.4338 16.1191C17.4887 16.0543 17.55 15.9923 17.5985 15.9247L17.7443 15.7212C17.7912 15.6531 17.8344 15.5826 17.8739 15.51C17.914 15.4396 17.957 15.3691 17.9936 15.2987L18.095 15.0804C18.1303 15.009 18.1616 14.9357 18.1886 14.8607L18.2703 14.6389C18.2837 14.6016 18.2985 14.565 18.3097 14.5277L18.3421 14.4157C18.3837 14.265 18.433 14.12 18.4618 13.9608C18.4907 13.8017 18.5203 13.6482 18.5428 13.4904C18.5527 13.4116 18.5576 13.3327 18.5646 13.2538L18.5738 13.1348L18.5773 13.0158C18.5881 12.6988 18.5693 12.3815 18.521 12.068C18.4751 11.7507 18.3965 11.439 18.2865 11.1378C18.2309 10.9849 18.1675 10.835 18.0964 10.6886L17.9774 10.471C17.9581 10.4344 17.9367 10.3989 17.9133 10.3647L17.8429 10.2598C17.6525 9.97407 17.4182 9.72026 17.1486 9.50772C16.8654 9.29376 16.5436 9.13644 16.2008 9.04438C16.0305 8.99958 15.8566 8.96989 15.6811 8.95566L15.4213 8.95073H15.3565L15.2931 8.95636L15.1664 8.96833C15.0003 8.98531 14.8357 9.01355 14.6735 9.05283C14.5939 9.07255 14.5171 9.0986 14.439 9.12325C14.3611 9.14506 14.2844 9.17115 14.2094 9.20141L14.1284 9.23451C14.2266 9.00824 14.3301 8.78478 14.439 8.56415C14.5587 8.32426 14.6852 8.0872 14.8185 7.85295C15.344 7.71785 15.883 7.6418 16.4254 7.62621C16.6317 7.61916 16.8388 7.61776 17.0458 7.62621C17.2528 7.63466 17.4598 7.64522 17.6668 7.66282C18.0809 7.70038 18.4935 7.75788 18.9048 7.83534C19.1111 7.87548 19.3118 7.91562 19.5209 7.96843C19.73 8.02124 19.9378 8.06349 20.1427 8.12405C20.3476 8.1846 20.556 8.2353 20.7588 8.3029L21.0651 8.39867C21.1679 8.43036 21.2679 8.46908 21.3693 8.50288C22.1801 8.78499 22.9726 9.11705 23.7423 9.49716C24.5127 9.88153 25.2612 10.3082 25.9844 10.7752C26.3449 11.0132 26.704 11.254 27.0533 11.5096C27.4026 11.7653 27.7448 12.03 28.0814 12.3018C28.418 12.5736 28.7454 12.8581 29.0672 13.1468C29.2263 13.2926 29.3834 13.4412 29.5376 13.5904C29.615 13.6651 29.6911 13.7411 29.7657 13.8165C29.8404 13.8918 29.9178 13.9728 29.9805 14.0397L29.9861 14.0467C30.0575 14.1308 30.1542 14.1893 30.2618 14.2134C30.3693 14.2376 30.4818 14.2261 30.5823 14.1807C30.6827 14.1353 30.7657 14.0584 30.8185 13.9617C30.8714 13.865 30.8914 13.7537 30.8755 13.6447C30.8628 13.5587 30.8515 13.4904 30.8382 13.4151L30.7966 13.1961C30.7684 13.0553 30.7375 12.9081 30.7051 12.7652C30.6398 12.4793 30.5682 12.1957 30.4903 11.9145C30.3349 11.3512 30.1554 10.7961 29.9516 10.2492C29.5469 9.15163 29.0427 8.09334 28.4454 7.08752C27.8459 6.0742 27.1355 5.13069 26.3273 4.27441C25.5136 3.41434 24.5902 2.66503 23.5811 2.04575C23.3182 1.8852 23.0504 1.73427 22.7776 1.59297C23.39 1.42068 24.0138 1.2922 24.6444 1.2085C25.7251 1.07535 26.8187 1.0853 27.8969 1.23807L28.0969 1.26906C28.1638 1.28103 28.2299 1.29511 28.2968 1.30779L28.6961 1.38595L28.7961 1.40496L28.8947 1.43031L29.0918 1.48171L29.4855 1.58452L29.8721 1.71127L30.0657 1.77394L30.1629 1.80563C30.1946 1.81689 30.2255 1.83098 30.2572 1.84295L30.6318 1.99153L30.8206 2.06687C30.8832 2.09363 30.9438 2.12461 31.005 2.15278C31.9947 2.60699 32.9184 3.19274 33.7513 3.89416C34.5885 4.60147 35.3408 5.40347 35.9933 6.28408C37.3248 8.03779 38.2333 10.0753 38.648 12.2377C39.0556 14.4001 38.9515 16.6279 38.3438 18.7428ZM26.3843 19.3216C26.0827 19.5231 25.7596 19.6905 25.4211 19.8208C25.3641 19.8432 25.3057 19.862 25.2464 19.8772C25.188 19.8934 25.1302 19.9138 25.0718 19.9272C24.9576 19.9529 24.8419 19.971 24.7253 19.9814L24.6394 19.9891H24.5972H24.5549H24.3881C24.2801 19.9786 24.1732 19.9593 24.0684 19.9314C23.8612 19.8746 23.6667 19.779 23.4952 19.6497C23.3185 19.5072 23.1651 19.338 23.0403 19.1484L22.9917 19.0779C22.975 19.0536 22.96 19.0282 22.9466 19.0019L22.8614 18.8442C22.8089 18.7344 22.7619 18.6221 22.7206 18.5076C22.6363 18.2734 22.5769 18.031 22.5432 17.7844C22.5062 17.5353 22.4928 17.2833 22.503 17.0317V16.9366L22.5115 16.8429C22.5178 16.7803 22.5213 16.7169 22.5291 16.6549C22.5488 16.531 22.565 16.4064 22.5953 16.2853C22.7122 15.7923 22.8868 15.2917 23.1544 14.9016L23.2572 14.7607C23.291 14.7122 23.3318 14.6741 23.3684 14.6305L23.4248 14.5657C23.4438 14.5453 23.4656 14.5284 23.486 14.5094C23.5276 14.4742 23.5663 14.4326 23.6093 14.4002C23.7725 14.2705 23.961 14.1763 24.1627 14.1235C24.3611 14.0737 24.568 14.0674 24.769 14.1052C24.9815 14.1507 25.184 14.2342 25.3668 14.3516C25.463 14.4122 25.5548 14.4795 25.6415 14.553C25.7282 14.6312 25.81 14.7147 25.8865 14.803C25.9645 14.8927 26.0373 14.9868 26.1048 15.0847L26.1992 15.2396C26.2146 15.2663 26.2322 15.2903 26.2456 15.3177L26.2865 15.4001C26.3985 15.6204 26.4889 15.851 26.5562 16.0888L26.5991 16.2719C26.6152 16.3324 26.6281 16.3938 26.6378 16.4557C26.6554 16.5817 26.6836 16.7042 26.6892 16.8324L26.7054 17.0232C26.7118 17.0866 26.7054 17.1514 26.7097 17.2147V17.4077C26.7097 17.4718 26.7026 17.5365 26.6991 17.6013L26.6885 17.795L26.6639 17.9886L26.64 18.1823L26.6047 18.3794C26.5477 18.69 26.4773 19.0068 26.3843 19.3216ZM27.385 19.8751L27.5624 19.7342C27.6223 19.6877 27.6814 19.6413 27.7363 19.5934L28.0729 19.2983L28.3926 18.9899L28.4722 18.9125L28.5313 18.8568C28.5569 18.8328 28.5847 18.8114 28.6144 18.7928C28.64 18.7764 28.6684 18.7652 28.6982 18.7597C28.7223 18.8069 28.734 18.8595 28.732 18.9125C28.7333 19.009 28.7212 19.1052 28.6961 19.1984C28.6309 19.4279 28.5342 19.6474 28.4088 19.8504C28.2755 20.0724 28.1261 20.2842 27.9617 20.4842C27.6085 20.8695 27.2038 21.2041 26.759 21.4784C26.9956 20.9617 27.199 20.4304 27.3681 19.8877L27.385 19.8751ZM13.6045 10.6816C13.9075 10.4801 14.2317 10.3127 14.5714 10.1823C14.6283 10.1599 14.6867 10.1411 14.746 10.126C14.8044 10.1098 14.8622 10.0894 14.9206 10.076C15.0348 10.0502 15.1505 10.0321 15.2671 10.0218L15.3523 10.014L15.3952 10.0105H15.4375H15.6044C15.7121 10.021 15.8188 10.0403 15.9233 10.0682C16.1308 10.1249 16.3255 10.2205 16.4972 10.3499C16.6737 10.4926 16.8272 10.6617 16.9521 10.8513L17 10.9217C17.0172 10.9458 17.0325 10.9713 17.0458 10.9977L17.131 11.1555C17.2895 11.4907 17.3963 11.848 17.4478 12.2152C17.4848 12.4645 17.4983 12.7168 17.488 12.9687V13.063L17.4795 13.1567C17.4732 13.2193 17.4697 13.2827 17.4619 13.3447C17.4422 13.4686 17.426 13.5933 17.3957 13.7144C17.2789 14.2073 17.1035 14.7079 16.8324 15.098L16.7303 15.2389C16.6965 15.2875 16.655 15.3255 16.6191 15.3691L16.5627 15.4339C16.5437 15.455 16.5219 15.4712 16.5015 15.4903C16.4599 15.5255 16.4212 15.567 16.3782 15.5994C16.2148 15.7293 16.026 15.8235 15.8241 15.8761C15.6257 15.926 15.4188 15.9322 15.2178 15.8944C15.0056 15.8488 14.8033 15.7653 14.6206 15.648C14.5245 15.5877 14.4327 15.5206 14.346 15.4473C14.2594 15.3687 14.1776 15.285 14.101 15.1966C14.023 15.1069 13.9501 15.0128 13.8827 14.915L13.7883 14.76C13.7728 14.734 13.7552 14.7093 13.7419 14.6819L13.701 14.5995C13.5891 14.3794 13.4987 14.149 13.4313 13.9115L13.3884 13.7284C13.375 13.6672 13.3567 13.6066 13.3489 13.544C13.332 13.4186 13.3039 13.2954 13.2982 13.1672L13.282 12.9764C13.2757 12.913 13.282 12.8483 13.2778 12.7849V12.5919C13.2778 12.5279 13.2849 12.4631 13.2884 12.3983L13.2989 12.2046L13.3236 12.011L13.3475 11.8174L13.3827 11.6202C13.4391 11.3132 13.5151 10.9963 13.6045 10.6816ZM12.6053 10.1281L12.4272 10.2689C12.368 10.3154 12.3089 10.3626 12.254 10.4097L11.916 10.7048L11.5963 11.0132L11.5167 11.0907L11.4576 11.1463C11.4319 11.1705 11.4038 11.192 11.3738 11.2104C11.3485 11.2268 11.3203 11.238 11.2907 11.2435C11.2665 11.1963 11.2549 11.1437 11.2569 11.0907C11.2556 10.9942 11.2677 10.898 11.2928 10.8048C11.358 10.5752 11.4547 10.3558 11.5801 10.1527C11.7133 9.93078 11.8628 9.71896 12.0272 9.51899C12.3796 9.13308 12.7836 8.79777 13.2278 8.5226C12.9913 9.03947 12.7876 9.57076 12.618 10.1133C12.6142 10.1186 12.61 10.1235 12.6053 10.1281Z" fill="#DCFF1C"/>
</svg>
