<svg width="30" height="30" viewBox="0 0 30 30" fill="none" xmlns="http://www.w3.org/2000/svg">
<circle cx="15" cy="15" r="15" fill="#DCFF1C"/>
<path d="M21.2299 9.71133C20.0899 9.1799 18.8556 8.79419 17.5699 8.57133C17.5586 8.57097 17.5474 8.57308 17.537 8.57753C17.5266 8.58197 17.5174 8.58863 17.5099 8.59704C17.3556 8.8799 17.1756 9.24847 17.0556 9.53133C15.6919 9.32561 14.305 9.32561 12.9413 9.53133C12.8213 9.2399 12.6413 8.8799 12.4784 8.59704C12.4699 8.5799 12.4441 8.57133 12.4184 8.57133C11.1327 8.79419 9.907 9.1799 8.75843 9.71133C8.74985 9.71133 8.74128 9.7199 8.73271 9.72847C6.40128 13.217 5.75843 16.6113 6.07557 19.9713C6.07557 19.9885 6.08414 20.0056 6.10128 20.0142C7.64414 21.1456 9.127 21.8313 10.5927 22.2856C10.6184 22.2942 10.6441 22.2856 10.6527 22.2685C10.9956 21.797 11.3041 21.2999 11.5699 20.777C11.587 20.7428 11.5699 20.7085 11.5356 20.6999C11.047 20.5113 10.5841 20.2885 10.1299 20.0313C10.0956 20.0142 10.0956 19.9628 10.1213 19.937C10.2156 19.8685 10.3099 19.7913 10.4041 19.7228C10.4213 19.7056 10.447 19.7056 10.4641 19.7142C13.4127 21.0599 16.5927 21.0599 19.507 19.7142C19.5241 19.7056 19.5499 19.7056 19.567 19.7228C19.6613 19.7999 19.7556 19.8685 19.8499 19.9456C19.8841 19.9713 19.8841 20.0228 19.8413 20.0399C19.3956 20.3056 18.9241 20.5199 18.4356 20.7085C18.4013 20.717 18.3927 20.7599 18.4013 20.7856C18.6756 21.3085 18.9841 21.8056 19.3184 22.277C19.3441 22.2856 19.3699 22.2942 19.3956 22.2856C20.8699 21.8313 22.3527 21.1456 23.8956 20.0142C23.9127 20.0056 23.9213 19.9885 23.9213 19.9713C24.2984 16.0885 23.2956 12.7199 21.2641 9.72847C21.2556 9.7199 21.247 9.71133 21.2299 9.71133V9.71133ZM12.0156 17.9228C11.1327 17.9228 10.3956 17.1085 10.3956 16.1056C10.3956 15.1028 11.1156 14.2885 12.0156 14.2885C12.9241 14.2885 13.6441 15.1113 13.6356 16.1056C13.6356 17.1085 12.9156 17.9228 12.0156 17.9228ZM17.9899 17.9228C17.107 17.9228 16.3699 17.1085 16.3699 16.1056C16.3699 15.1028 17.0899 14.2885 17.9899 14.2885C18.8984 14.2885 19.6184 15.1113 19.6099 16.1056C19.6099 17.1085 18.8984 17.9228 17.9899 17.9228Z" fill="#222426"/>
</svg>
