<svg width="20" height="20" viewBox="0 0 20 20" fill="none" xmlns="http://www.w3.org/2000/svg">
<path d="M15.1191 10.0187C15.1289 8.97576 15.1387 7.87383 15.1683 6.76206C15.1879 6.07336 15.3454 5.46336 15.6405 4.94191C15.7586 4.7353 15.9062 4.52869 16.0439 4.34175L16.0636 4.31224C16.1226 4.22369 16.1915 4.13514 16.2505 4.0466C16.2702 4.01708 16.2899 3.98756 16.3095 3.94821L16.5063 3.59402L16.1325 3.52515C16.1029 3.51531 16.0734 3.51531 16.0242 3.51531L15.552 3.53499C14.942 3.55466 14.3221 3.57434 13.7023 3.60386L13.6433 3.4366C13.5547 3.17096 13.4662 2.91515 13.3678 2.66919C13.1612 2.12806 12.8857 1.59677 12.5512 1.08516C12.4823 0.976938 12.3151 0.878552 12.1576 0.917907C12.0002 0.9671 11.8231 1.02613 11.6362 1.10484C10.918 1.38032 10.2391 1.73451 9.57991 2.15758C9.57991 2.15758 9.57007 2.15758 9.57007 2.14774C8.80266 1.69516 8.09428 1.36065 7.40557 1.1442C7.15961 1.06549 6.98251 1.13436 6.85461 1.33113C6.44138 2.00016 6.10687 2.71838 5.82155 3.55466C5.3001 3.53499 4.76881 3.52515 4.23753 3.51531L3.88334 3.50547C3.84398 3.50547 3.80463 3.50547 3.74559 3.51531L3.25366 3.55466L3.59801 4.03676C3.65705 4.1253 3.71608 4.20401 3.76527 4.28272C4.02108 4.63691 4.28672 5.02062 4.4343 5.45352C4.67043 6.17174 4.71962 6.90964 4.72946 7.53931C4.7393 8.09028 4.7393 8.6314 4.7393 9.18237C4.7393 9.56607 4.7393 9.93994 4.74914 10.3237C4.74914 10.8254 4.85736 11.337 5.07381 11.888C5.38865 12.7144 5.89042 13.4228 6.55945 13.9836C7.31702 14.6231 8.2025 15.0265 9.18637 15.1643C9.18637 15.4988 9.18637 16.5712 9.18637 17.6338V17.8699C9.18637 18.3717 9.18637 18.3717 9.18637 18.4996V18.6963C9.18637 18.7455 9.18637 18.8734 9.29459 18.9817C9.3733 19.0604 9.47169 19.08 9.5504 19.08C9.56023 19.08 9.57007 19.08 9.57991 19.08C9.81604 19.0702 10.0423 19.08 10.2883 19.08C10.4359 19.08 10.5146 19.021 10.5638 18.9718C10.6326 18.903 10.672 18.8046 10.6622 18.6865C10.6622 18.4209 10.6523 15.8333 10.6622 15.2331V15.1938C10.6622 15.1839 10.6622 15.1643 10.6622 15.1544C10.8196 15.1249 10.9868 15.0954 11.1541 15.056C12.0789 14.8396 12.8759 14.387 13.5449 13.7278C14.5779 12.7243 15.1092 11.4649 15.1191 10.0187ZM12.1773 3.92853L12.138 3.81047C11.9412 3.84982 11.7444 3.88918 11.5476 3.93837C11.2426 4.03676 10.9376 4.1253 10.613 4.23353C10.4064 4.29256 10.2096 4.36143 10.003 4.42046C9.9341 4.44014 9.90459 4.44014 9.90459 4.44014C9.69798 4.37127 9.49136 4.3024 9.28475 4.22369C9.29459 4.21385 9.30443 4.20401 9.31427 4.20401C10.003 3.59402 10.7999 3.08241 11.7543 2.63967C11.8428 2.8758 11.9412 3.11192 12.0396 3.34805L12.2265 3.79079L12.1478 3.81047L12.1773 3.92853ZM6.17574 7.31303C6.1659 6.40787 6.05768 5.67981 5.83139 5.02062C5.95929 5.03046 6.08719 5.0403 6.20526 5.05014C6.93332 5.12885 7.59251 5.24691 8.22218 5.42401C8.84201 5.59126 9.43233 5.80771 9.97346 6.06352C11.1935 6.63416 12.2265 7.40157 13.0431 8.33624C13.2399 8.56253 13.4268 8.81834 13.6138 9.08398C13.6433 9.12334 13.663 9.18237 13.663 9.2414V9.43817C13.663 9.79236 13.663 10.1564 13.6236 10.5106C13.5449 11.2583 13.2301 11.9372 12.6889 12.5373C12.3446 12.9211 11.9412 13.2162 11.4886 13.4228C10.9278 13.6786 10.3473 13.7869 9.75701 13.7573C8.86169 13.7081 8.09428 13.3933 7.43509 12.7931C6.80541 12.2323 6.41187 11.524 6.26429 10.7074C6.19542 10.4024 6.19542 10.058 6.18558 9.73333V9.61527C6.17574 9.23156 6.17574 8.83802 6.18558 8.45431V8.36576C6.18558 8.01157 6.18558 7.65738 6.17574 7.31303ZM14.0171 5.01078C13.8302 5.57159 13.722 6.19142 13.6826 6.87029C13.112 6.30948 12.4725 5.80771 11.7838 5.38465C11.7936 5.38465 11.8034 5.38465 11.8034 5.37481C12.502 5.19772 13.2202 5.07965 14.0171 5.01078ZM7.32686 3.7416C7.45476 3.44644 7.58267 3.14144 7.71057 2.83644C7.91718 2.93483 8.11395 3.03322 8.31073 3.1316C8.08444 3.35789 7.85815 3.57434 7.6417 3.79079C7.56299 3.78095 7.49412 3.77111 7.42525 3.75144H7.37605C7.35638 3.7416 7.3367 3.7416 7.32686 3.7416Z" fill="#12293A"/>
<path d="M6.71692 14.4362C6.1266 13.9738 5.41822 13.659 4.67048 13.5114C4.29661 13.4425 3.92275 13.413 3.53904 13.4229L3.42097 13.4327C3.37178 13.4327 3.33243 13.4425 3.30291 13.4425C3.28323 13.4425 3.26356 13.4425 3.23404 13.4425C3.18485 13.4425 3.12582 13.4425 3.05695 13.4524C2.69292 13.5311 2.72243 13.9542 2.73227 14.0919C2.7913 14.82 2.90937 15.4496 3.10614 16.0104C3.34227 16.6893 3.69646 17.2599 4.1392 17.7027C4.62129 18.1848 5.2608 18.5586 5.98886 18.7948C6.53983 18.9719 7.13014 19.0604 7.80901 19.0899C7.89756 19.0899 7.98611 19.0899 8.07465 19.0899H8.14352C8.26159 19.0801 8.35997 19.0407 8.42884 18.9719C8.51739 18.8735 8.53707 18.7554 8.53707 18.6964C8.68465 17.2698 8.12385 15.7546 7.09079 14.7609C6.97273 14.6429 6.85466 14.5346 6.71692 14.4362ZM6.9924 17.5354C6.98256 17.5354 6.97273 17.5354 6.96289 17.5354H6.93337C6.34305 17.4469 5.77241 17.1812 5.32967 16.7877C4.79839 16.3253 4.43436 15.6562 4.32613 14.9577C4.32613 14.9577 4.32613 14.9479 4.32613 14.938C4.32613 14.938 4.32613 14.938 4.33597 14.938C4.51306 14.938 4.86726 15.0364 5.20177 15.184C5.5658 15.3414 5.91015 15.5677 6.18563 15.853C6.32337 16.0006 6.45128 16.158 6.5595 16.3351C6.7366 16.6106 6.8645 16.9156 6.93337 17.2304L6.94321 17.2895C6.96289 17.3485 6.98256 17.4469 6.9924 17.5354Z" fill="#12293A"/>
<path d="M17.0376 13.5212C16.9294 13.4228 16.8015 13.4326 16.7425 13.4326L16.3981 13.4523C16.1128 13.4622 15.7881 13.4818 15.4634 13.5114C14.9912 13.5605 14.5189 13.6983 13.9975 13.9246C13.5744 14.1115 13.1809 14.3772 12.8168 14.692C12.502 14.9675 12.2462 15.3118 11.9707 15.8136C11.8035 16.1284 11.6854 16.4629 11.5772 16.7975C11.3804 17.3878 11.2918 18.0371 11.3115 18.716C11.3115 18.8242 11.3509 18.9226 11.4197 18.9816C11.4886 19.0407 11.5673 19.08 11.6854 19.08C11.7641 19.08 11.8428 19.08 11.9314 19.08H12.0593C12.8463 19.0702 13.5547 18.9423 14.1942 18.6865C15.1781 18.3126 15.916 17.6928 16.3883 16.8467C16.9097 15.9317 17.1458 14.9281 17.136 13.777C17.1458 13.6491 17.0868 13.5605 17.0376 13.5212ZM15.552 15.1347C15.3946 15.7644 15.0502 16.3547 14.5681 16.7778C14.0959 17.2008 13.5055 17.4665 12.8955 17.5452C12.9841 16.9057 13.2891 16.3055 13.7318 15.8431C14.027 15.5381 14.391 15.302 14.7747 15.1446L14.8239 15.1249C15.2863 14.9281 15.4733 14.9183 15.5421 14.9183C15.5618 14.9183 15.5717 14.9183 15.5717 14.9183C15.6012 14.9675 15.5618 15.0954 15.552 15.1347Z" fill="#12293A"/>
</svg>
