<svg width="40" height="41" viewBox="0 0 40 41" fill="none" xmlns="http://www.w3.org/2000/svg">
<circle cx="20" cy="20.5" r="20" fill="#386EEC"/>
<path d="M16.0883 20.9985C18.374 21.0106 20.3436 19.0653 20.3558 16.804C20.3679 14.4453 18.447 12.5 16.1126 12.5C13.8147 12.5 11.8695 14.4088 11.8573 16.6945C11.8451 19.041 13.7661 20.9985 16.0883 20.9985Z" fill="white"/>
<path d="M31.5532 23.2477C31.7112 23.0288 31.7964 22.7735 31.7842 22.506C31.772 22.0805 31.5289 21.6793 31.1398 21.4604C31.0426 21.3996 30.921 21.3753 30.8116 21.3753L28.5258 21.424L28.5623 20.2446C28.5745 19.965 28.465 19.6975 28.2705 19.4908C28.1733 19.3936 28.0517 19.3085 27.9301 19.2598C27.7964 19.2112 27.6626 19.1869 27.5289 19.1869C27.0304 19.199 26.6049 19.5395 26.4833 20.0258L25.7295 23.0045L24.9271 23.0167C23.9058 23.0288 22.8967 22.9316 21.2188 22.968C18.4468 23.0531 15.6505 22.9316 12.8906 23.3085C12.2219 23.4057 11.9058 23.4787 11.4195 23.9164C10.9939 24.2933 10.5927 24.7066 10.2158 25.1565C9.74164 25.7401 9.34043 26.3966 9 27.0653C11.9909 30.2021 16.1368 32.2325 20.7568 32.5C20.7568 31.43 20.7568 30.348 20.7568 29.2781C20.7568 29.0349 20.7568 28.7796 20.8055 28.5364C20.8419 28.3297 20.9027 28.1352 21.0122 27.965C21.4742 27.272 22.4711 27.3085 23.31 27.272C23.7964 27.2477 24.1976 27.2234 24.5745 27.2112L30.3131 27.0045C30.3982 27.0045 30.4833 26.9802 30.5684 26.9437C31.0182 26.737 31.2979 26.2872 31.2857 25.8009C31.2857 25.6793 31.2614 25.5577 31.2249 25.4483C31.383 25.2294 31.4681 24.9741 31.4559 24.7066C31.4559 24.5851 31.4316 24.4635 31.3951 24.3541C31.5532 24.1352 31.6383 23.8799 31.6261 23.6124C31.614 23.4787 31.5897 23.3571 31.5532 23.2477Z" fill="white"/>
<path d="M29.9351 10.0727C29.755 9.89138 29.541 9.74745 29.3051 9.64917C29.0693 9.55089 28.8163 9.5002 28.5609 9.5C28.0776 9.50008 27.612 9.68162 27.2562 10.0087C26.9004 9.68157 26.4348 9.50002 25.9515 9.5C25.6957 9.50027 25.4425 9.55112 25.2064 9.64962C24.9704 9.74813 24.7561 9.89235 24.576 10.074C23.8077 10.8455 23.8081 12.0522 24.5766 12.8205L27.2562 15.5L29.9357 12.8205C30.7043 12.0522 30.7046 10.8455 29.9351 10.0727Z" fill="white"/>
</svg>
