<svg width="40" height="40" viewBox="0 0 40 40" fill="none" xmlns="http://www.w3.org/2000/svg">
<circle cx="20" cy="20" r="20" fill="#386EEC"/>
<g clip-path="url(#clip0)">
<path d="M16.8902 9.48999C15.0002 9.48999 13.4002 11.06 13.3902 12.94C13.3802 14.87 14.9602 16.48 16.8702 16.48C18.7502 16.49 20.3702 14.89 20.3802 13.03C20.3902 11.1 18.8102 9.48999 16.8902 9.48999Z" fill="white"/>
<path d="M23.7302 23.87C23.7202 23.76 23.7102 23.65 23.6902 23.54C23.3602 21.16 21.8302 18.88 19.5902 18.04C17.8202 17.36 14.5802 17.28 13.0202 18.42C11.4002 19.61 10.3602 21.87 10.0802 23.81C9.76021 26.11 10.3902 28.52 11.8002 30.36C11.9002 28.71 12.0002 27.07 12.1102 25.42C12.1302 25.08 12.2402 24.65 12.5802 24.63C12.9402 24.61 13.0902 25.09 13.0902 25.45C13.1002 26.57 12.9002 27.68 12.8502 28.8C12.8002 29.92 12.9202 31.09 13.5002 32.05C14.0802 33.01 15.2302 33.68 16.3302 33.44C16.3702 32.63 16.4102 31.82 16.4402 31.01C16.4502 30.69 16.5702 30.28 16.8802 30.28C17.1902 30.28 17.3002 30.69 17.3202 31C17.3602 31.81 17.3902 32.62 17.4302 33.43C18.5202 33.67 19.6502 33.01 20.2402 32.06C20.8302 31.12 20.9502 29.95 20.9102 28.84C20.8602 27.73 20.6602 26.63 20.6502 25.52C20.6502 25.09 20.8902 24.51 21.2902 24.65C21.5402 24.74 21.6002 25.06 21.6202 25.33C21.7402 27.01 21.8702 28.7 21.9902 30.38C23.2102 28.44 23.9502 26.14 23.7302 23.87Z" fill="white"/>
<path d="M22.8301 14.25C22.8301 12.61 22.8301 10.96 22.8301 9.32C22.8301 9.12 22.9401 9 23.1501 9C24.1301 9 25.1201 9 26.1001 9C27.9901 9 29.8701 9 31.7601 9C31.8501 9 31.9401 9.01 32.0101 9.08C32.0701 9.14 32.1001 9.22 32.1001 9.31C32.1001 11.37 32.1001 13.43 32.1001 15.49C32.1001 16.73 32.1001 17.96 32.1001 19.2C32.1001 19.4 31.9901 19.51 31.7901 19.52C31.7701 19.52 31.7601 19.52 31.7401 19.52C28.8801 19.52 26.0301 19.52 23.1701 19.52C23.0801 19.52 22.9901 19.51 22.9301 19.45C22.8601 19.39 22.8301 19.31 22.8301 19.21C22.8301 17.55 22.8301 15.9 22.8301 14.25ZM24.5001 10.5C24.5001 12.75 24.5001 15.76 24.5001 18C26.4401 18 28.4301 18 30.3701 18C30.3701 15.75 30.3701 12.74 30.3701 10.5C28.4301 10.5 26.4401 10.5 24.5001 10.5Z" fill="white"/>
<path d="M25.2998 15.4355C25.2998 15.2835 25.3494 15.1461 25.399 15.0086C25.4983 14.7627 25.6306 14.5312 25.8704 14.3503C26.0358 14.2273 26.0441 14.0682 26.0028 13.8945C25.9614 13.7281 25.9118 13.569 25.8787 13.4026C25.8456 13.2868 25.8456 13.1639 25.8622 13.0481C25.8787 12.9324 25.9366 12.8311 26.0276 12.7443C26.1682 12.614 26.3501 12.5272 26.5569 12.5055C26.7057 12.4838 26.8463 12.5272 26.9455 12.614C27.0448 12.7009 27.1275 12.7949 27.2185 12.8962C27.2929 12.9758 27.359 13.0626 27.4335 13.1422C27.5493 13.2651 27.6733 13.3013 27.847 13.2434C27.9876 13.1928 28.1199 13.1349 28.2439 13.0698C28.3763 13.0047 28.5086 12.9396 28.6574 12.9107C28.8311 12.8745 28.98 12.9179 29.0958 13.0409C29.3356 13.3013 29.3687 13.5835 29.1702 13.8656C29.0875 13.9814 28.9965 14.0899 28.8973 14.1911C28.7236 14.3648 28.6823 14.5601 28.7401 14.7699C28.8146 15.0231 28.8973 15.2763 28.9717 15.5295C29.0048 15.638 29.0296 15.7538 29.0296 15.8623C29.0461 16.1227 28.9138 16.3036 28.6326 16.3976C28.4011 16.4772 28.1612 16.5062 27.9131 16.4989C27.8056 16.4917 27.6981 16.47 27.6071 16.4121C27.4914 16.347 27.3839 16.2674 27.2846 16.1878C27.1523 16.0866 27.0282 15.9708 26.8959 15.8695C26.7471 15.761 26.5817 15.7465 26.408 15.8117C26.3005 15.8478 26.2012 15.8912 26.102 15.9346C25.7795 16.0649 25.3494 15.8117 25.3246 15.5585C25.3081 15.5223 25.2998 15.4789 25.2998 15.4355Z" fill="white"/>
<path d="M28.0599 11.8799C27.8299 11.8799 27.6499 11.6999 27.6499 11.4799C27.6499 11.2499 27.8299 11.0699 28.0599 11.0699C28.2899 11.0699 28.4699 11.2499 28.4699 11.4799C28.4699 11.6999 28.2899 11.8799 28.0599 11.8799Z" fill="white"/>
</g>
<defs>
<clipPath id="clip0">
<rect width="22.09" height="24.49" fill="white" transform="translate(10 9)"/>
</clipPath>
</defs>
</svg>
