<svg width="20" height="20" viewBox="0 0 20 20" fill="none" xmlns="http://www.w3.org/2000/svg">
<path d="M7.41665 5.05833L6.23332 3.88333L7.49998 2.5H12.5L14.025 4.16667H16.6667C17.5833 4.16667 18.3333 4.91667 18.3333 5.83333V15.8333C18.3333 15.875 18.325 15.9167 18.3167 15.9667L16.6667 14.3083V5.83333H13.2917L11.7667 4.16667H8.23332L7.41665 5.05833ZM17.075 19.425L15.1417 17.5H3.33332C2.41665 17.5 1.66665 16.75 1.66665 15.8333V5.83333C1.66665 5.34167 1.89165 4.9 2.23332 4.59167L0.56665 2.925L1.74998 1.75L18.25 18.25L17.075 19.425ZM7.65832 10.0167C7.56665 10.275 7.49998 10.5417 7.49998 10.8333C7.49998 12.2167 8.61665 13.3333 9.99998 13.3333C10.2917 13.3333 10.5583 13.2667 10.8167 13.175L7.65832 10.0167ZM13.475 15.8333L12.075 14.4333C11.4667 14.7917 10.7583 15 9.99998 15C7.69998 15 5.83332 13.1333 5.83332 10.8333C5.83332 10.075 6.04165 9.36667 6.39998 8.75833L3.47498 5.83333H3.33332V15.8333H13.475ZM12.3417 9.98333L14.0667 11.7083C14.1333 11.425 14.1667 11.1333 14.1667 10.8333C14.1667 8.53333 12.3 6.66667 9.99998 6.66667C9.69998 6.66667 9.40832 6.7 9.11665 6.76667L10.8417 8.49167C11.5417 8.74167 12.0917 9.29167 12.3417 9.98333Z" fill="#12293A"/>
</svg>
