<svg width="16" height="16" viewBox="0 0 16 16" fill="none" xmlns="http://www.w3.org/2000/svg">
<path d="M13.806 8.05455C14.0521 8.37975 14.1884 8.77819 14.1884 9.19274C14.1884 9.85045 13.8207 10.473 13.2289 10.8202C13.0765 10.9095 12.9031 10.9566 12.7264 10.9564H9.21375L9.30164 12.7567C9.32215 13.1918 9.16834 13.6048 8.86951 13.9198C8.72286 14.075 8.54593 14.1985 8.34966 14.2827C8.15339 14.3668 7.94194 14.4098 7.7284 14.409C6.96668 14.409 6.29285 13.8964 6.0907 13.1625L4.8324 8.6068H2.93835C2.67908 8.6068 2.4696 8.39733 2.4696 8.13805V2.80602C2.4696 2.54674 2.67908 2.33727 2.93835 2.33727H11.7465C11.8812 2.33727 12.0131 2.36364 12.1346 2.41637C12.8319 2.71373 13.2816 3.39489 13.2816 4.15075C13.2816 4.33532 13.2553 4.51696 13.2025 4.69274C13.4486 5.01793 13.5848 5.41637 13.5848 5.83092C13.5848 6.01549 13.5585 6.19713 13.5057 6.37292C13.7518 6.69811 13.8881 7.09655 13.8881 7.5111C13.8851 7.69567 13.8588 7.87877 13.806 8.05455ZM3.52429 3.39196V7.55211H4.71082V3.39196H3.52429Z" fill="#386EEC"/>
</svg>
