<svg width="30" height="30" viewBox="0 0 30 30" fill="none" xmlns="http://www.w3.org/2000/svg">
<circle cx="15" cy="15" r="15" fill="#DCFF1C"/>
<path d="M16.3169 15.0001C16.3169 18.0768 13.8159 20.5716 10.7294 20.5716C9.99672 20.5725 9.27108 20.4292 8.59385 20.1497C7.91662 19.8703 7.30106 19.4602 6.78233 18.9428C6.26359 18.4255 5.85184 17.811 5.57057 17.1345C5.28931 16.458 5.14404 15.7328 5.14307 15.0001C5.14307 11.9222 7.64402 9.42872 10.7294 9.42872C11.4621 9.42758 12.1879 9.57079 12.8652 9.85018C13.5426 10.1296 14.1583 10.5397 14.6772 11.057C15.196 11.5744 15.6079 12.1889 15.8892 12.8655C16.1706 13.5421 16.3159 14.2674 16.3169 15.0001V15.0001ZM22.4454 15.0001C22.4454 17.8973 21.195 20.2447 19.6523 20.2447C18.1096 20.2447 16.8592 17.896 16.8592 15.0001C16.8592 12.103 18.1096 9.75557 19.6523 9.75557C21.195 9.75557 22.4454 12.1042 22.4454 15.0001ZM24.9526 15.0001C24.9526 17.5952 24.5131 19.6987 23.9695 19.6987C23.4273 19.6987 22.9877 17.594 22.9877 15.0001C22.9877 12.4051 23.4273 10.3016 23.9708 10.3016C24.5131 10.3016 24.9526 12.4051 24.9526 15.0001Z" fill="#222426"/>
</svg>
