<svg width="21" height="23" viewBox="0 0 21 23" fill="none" xmlns="http://www.w3.org/2000/svg">
<g clip-path="url(#clip0)">
<path d="M2.875 10.0625H3.48145C4.59102 12.6006 7.11563 14.375 10.0625 14.375C13.0094 14.375 15.534 12.6006 16.6436 10.0625H17.25C17.6453 10.0625 17.9688 9.73906 17.9688 9.34375V5.03125C17.9688 4.63594 17.6453 4.3125 17.25 4.3125H16.6436C15.534 1.77441 13.0094 0 10.0625 0C7.11563 0 4.59102 1.77441 3.48145 4.3125H2.875C2.47969 4.3125 2.15625 4.63594 2.15625 5.03125V9.34375C2.15625 9.73906 2.47969 10.0625 2.875 10.0625ZM4.67188 6.10938C4.67188 5.1166 5.6377 4.3125 6.82813 4.3125H13.2969C14.4873 4.3125 15.4531 5.1166 15.4531 6.10938V7.1875C15.4531 9.56836 13.5215 11.5 11.1406 11.5H8.98438C6.60352 11.5 4.67188 9.56836 4.67188 7.1875V6.10938ZM7.90625 9.34375L8.44531 7.72656L10.0625 7.1875L8.44531 6.64844L7.90625 5.03125L7.36719 6.64844L5.75 7.1875L7.36719 7.72656L7.90625 9.34375ZM14.7164 14.4379C13.3732 15.3049 11.7785 15.8125 10.0625 15.8125C8.34649 15.8125 6.75176 15.3049 5.40859 14.4379C2.37637 14.7568 0 17.2949 0 20.4125V20.8438C0 22.0342 0.96582 23 2.15625 23H5.75V20.125C5.75 19.3299 6.39238 18.6875 7.1875 18.6875H12.9375C13.7326 18.6875 14.375 19.3299 14.375 20.125V23H17.9688C19.1592 23 20.125 22.0342 20.125 20.8438V20.4125C20.125 17.2949 17.7486 14.7568 14.7164 14.4379ZM12.2188 20.125C11.8234 20.125 11.5 20.4484 11.5 20.8438C11.5 21.2391 11.8234 21.5625 12.2188 21.5625C12.6141 21.5625 12.9375 21.2391 12.9375 20.8438C12.9375 20.4484 12.6141 20.125 12.2188 20.125ZM7.90625 20.125C7.51094 20.125 7.1875 20.4484 7.1875 20.8438V23H8.625V20.8438C8.625 20.4484 8.30156 20.125 7.90625 20.125Z" fill="#35466D"/>
</g>
<defs>
<clipPath id="clip0">
<rect width="20.125" height="23" fill="white"/>
</clipPath>
</defs>
</svg>
