<svg width="264" height="67" viewBox="0 0 264 67" preserveAspectRatio="none"  fill="none" xmlns="http://www.w3.org/2000/svg">
<g filter="url(#filter0_d)">
<path d="M0 15C0 6.71573 6.71573 0 15 0H245.394C255.274 0 262.456 9.38711 259.871 18.9238L250.656 52.9238C248.885 59.4611 242.952 64 236.179 64H15C6.71574 64 0 57.2843 0 49V15Z" fill="#DCDFEE"/>
<path d="M15 1.5H245.394C254.286 1.5 260.75 9.9484 258.423 18.5314L249.209 52.5314C247.614 58.4149 242.275 62.5 236.179 62.5H15C7.54416 62.5 1.5 56.4558 1.5 49V15C1.5 7.54416 7.54416 1.5 15 1.5Z" stroke="#283475" stroke-width="3"/>
</g>
<defs>
<filter id="filter0_d" x="0" y="0" width="263.402" height="67" filterUnits="userSpaceOnUse" color-interpolation-filters="sRGB">
<feFlood flood-opacity="0" result="BackgroundImageFix"/>
<feColorMatrix in="SourceAlpha" type="matrix" values="0 0 0 0 0 0 0 0 0 0 0 0 0 0 0 0 0 0 127 0" result="hardAlpha"/>
<feOffset dx="3" dy="3"/>
<feComposite in2="hardAlpha" operator="out"/>
<feColorMatrix type="matrix" values="0 0 0 0 0.207843 0 0 0 0 0.27451 0 0 0 0 0.631373 0 0 0 1 0"/>
<feBlend mode="normal" in2="BackgroundImageFix" result="effect1_dropShadow"/>
<feBlend mode="normal" in="SourceGraphic" in2="effect1_dropShadow" result="shape"/>
</filter>
</defs>
</svg>
