<svg width="449" height="124" viewBox="0 0 449 124" preserveAspectRatio="none" fill="none" xmlns="http://www.w3.org/2000/svg">
<g filter="url(#filter0_d)">
<mask id="path-1-inside-1" fill="white">
<path d="M0 15C0 6.71573 6.71573 0 15 0H430.911C440.631 0 447.784 9.10335 445.485 18.5478L423.333 109.548C421.697 116.269 415.676 121 408.759 121H15C6.7157 121 0 114.284 0 106V15Z"/>
</mask>
<path d="M0 15C0 6.71573 6.71573 0 15 0H430.911C440.631 0 447.784 9.10335 445.485 18.5478L423.333 109.548C421.697 116.269 415.676 121 408.759 121H15C6.7157 121 0 114.284 0 106V15Z" fill="#DCDFEE"/>
<path d="M0 15C0 6.71573 6.71573 0 15 0H430.911C440.631 0 447.784 9.10335 445.485 18.5478L423.333 109.548C421.697 116.269 415.676 121 408.759 121H15C6.7157 121 0 114.284 0 106V15Z" stroke="#283475" stroke-width="6" mask="url(#path-1-inside-1)"/>
</g>
<defs>
<filter id="filter0_d" x="0" y="0" width="448.918" height="124" filterUnits="userSpaceOnUse" color-interpolation-filters="sRGB">
<feFlood flood-opacity="0" result="BackgroundImageFix"/>
<feColorMatrix in="SourceAlpha" type="matrix" values="0 0 0 0 0 0 0 0 0 0 0 0 0 0 0 0 0 0 127 0" result="hardAlpha"/>
<feOffset dx="3" dy="3"/>
<feComposite in2="hardAlpha" operator="out"/>
<feColorMatrix type="matrix" values="0 0 0 0 0.207843 0 0 0 0 0.27451 0 0 0 0 0.631373 0 0 0 1 0"/>
<feBlend mode="normal" in2="BackgroundImageFix" result="effect1_dropShadow"/>
<feBlend mode="normal" in="SourceGraphic" in2="effect1_dropShadow" result="shape"/>
</filter>
</defs>
</svg>
