<svg width="117" height="51" viewBox="0 0 117 51" fill="none" xmlns="http://www.w3.org/2000/svg">
<path d="M9.07812 25.2156C9.07812 16.3028 16.3033 9.07764 25.2161 9.07764H91.785C100.698 9.07764 107.923 16.3028 107.923 25.2156V25.2156C107.923 34.1283 100.698 41.3535 91.785 41.3535H25.2161C16.3033 41.3535 9.07812 34.1283 9.07812 25.2156V25.2156Z" fill="#FFF6E0"/>
<path fill-rule="evenodd" clip-rule="evenodd" d="M25.2155 0H91.7845C105.711 0 117 11.2894 117 25.2155C117 39.1417 105.711 50.431 91.7845 50.431H25.2155C11.2894 50.431 0 39.1417 0 25.2155C0 11.2894 11.2894 0 25.2155 0ZM25.2155 9.07759C16.3028 9.07759 9.07759 16.3028 9.07759 25.2155C9.07759 34.1283 16.3028 41.3535 25.2155 41.3535H91.7845C100.697 41.3535 107.922 34.1283 107.922 25.2155C107.922 16.3028 100.697 9.07759 91.7845 9.07759H25.2155Z" fill="#F4994B"/>
</svg>
