<svg width="650" height="197" viewBox="0 0 650 197" fill="none" xmlns="http://www.w3.org/2000/svg">
<mask id="path-1-inside-1" fill="white">
<path fill-rule="evenodd" clip-rule="evenodd" d="M59.2594 28.8862C47.3322 14.9331 35.6997 5.34576 19.0705 0.125493C17.4796 -0.372823 15.6655 0.668323 15.1795 2.2684C9.86065 20.143 12.3395 37.1918 18.3379 55.1996C6.88359 69.0406 0 86.8021 0 106.171V116.171C0 160.354 35.8172 196.171 80 196.171H570C614.183 196.171 650 160.354 650 116.171V106.171C650 85.7488 642.347 67.1134 629.753 52.9766C635.219 35.7843 637.287 19.4059 632.188 2.2684C631.702 0.668323 629.888 -0.372823 628.297 0.125493C611.886 5.2773 600.341 14.6824 588.577 28.3395C582.615 26.9219 576.395 26.1715 570 26.1715H357.448L327.328 26.1715L295.692 26.1715H80C72.8268 26.1715 65.8741 27.1155 59.2594 28.8862Z"/>
</mask>
<path fill-rule="evenodd" clip-rule="evenodd" d="M59.2594 28.8862C47.3322 14.9331 35.6997 5.34576 19.0705 0.125493C17.4796 -0.372823 15.6655 0.668323 15.1795 2.2684C9.86065 20.143 12.3395 37.1918 18.3379 55.1996C6.88359 69.0406 0 86.8021 0 106.171V116.171C0 160.354 35.8172 196.171 80 196.171H570C614.183 196.171 650 160.354 650 116.171V106.171C650 85.7488 642.347 67.1134 629.753 52.9766C635.219 35.7843 637.287 19.4059 632.188 2.2684C631.702 0.668323 629.888 -0.372823 628.297 0.125493C611.886 5.2773 600.341 14.6824 588.577 28.3395C582.615 26.9219 576.395 26.1715 570 26.1715H357.448L327.328 26.1715L295.692 26.1715H80C72.8268 26.1715 65.8741 27.1155 59.2594 28.8862Z" fill="#FFF6E0"/>
<path d="M59.2594 28.8862L51.6581 35.3839L55.7548 40.1765L61.8453 38.5461L59.2594 28.8862ZM19.0705 0.125493L22.0656 -9.41544L22.0596 -9.41732L19.0705 0.125493ZM15.1795 2.2684L5.61107 -0.637735L5.60286 -0.610712L5.5948 -0.583643L15.1795 2.2684ZM18.3379 55.1996L26.0419 61.5752L29.5783 57.3019L27.8254 52.0393L18.3379 55.1996ZM629.753 52.9766L620.223 49.9468L618.497 55.3753L622.286 59.6285L629.753 52.9766ZM632.188 2.2684L641.772 -0.583643L641.764 -0.610827L641.756 -0.637965L632.188 2.2684ZM628.297 0.125493L625.308 -9.41732L625.302 -9.41544L628.297 0.125493ZM588.577 28.3395L586.263 38.0682L592.183 39.4758L596.154 34.8659L588.577 28.3395ZM357.448 26.1715L357.448 16.1715L357.448 16.1715L357.448 26.1715ZM327.328 26.1715L327.328 36.1715L327.328 36.1715L327.328 26.1715ZM295.692 26.1715L295.692 16.1715H295.692V26.1715ZM66.8608 22.3886C54.2381 7.62184 41.1242 -3.43252 22.0656 -9.41544L16.0754 9.66642C30.2752 14.124 40.4263 22.2444 51.6581 35.3839L66.8608 22.3886ZM22.0596 -9.41732C14.7577 -11.7045 7.58474 -7.136 5.61107 -0.637735L24.7479 5.17454C24.1647 7.09477 22.898 8.40883 21.584 9.14217C20.2571 9.88275 18.2742 10.3552 16.0814 9.66831L22.0596 -9.41732ZM5.5948 -0.583643C-0.539029 20.0299 2.51601 39.3434 8.85039 58.3599L27.8254 52.0393C22.163 35.0403 20.2603 20.2561 24.7641 5.12045L5.5948 -0.583643ZM10 106.171C10 89.2145 16.0167 73.6893 26.0419 61.5752L10.6339 48.824C-2.24951 64.3918 -10 84.3898 -10 106.171H10ZM10 116.171V106.171H-10V116.171H10ZM80 186.171C41.3401 186.171 10 154.831 10 116.171H-10C-10 165.877 30.2944 206.171 80 206.171V186.171ZM570 186.171H80V206.171H570V186.171ZM640 116.171C640 154.831 608.66 186.171 570 186.171V206.171C619.706 206.171 660 165.877 660 116.171H640ZM640 106.171V116.171H660V106.171H640ZM622.286 59.6285C633.312 72.0047 640 88.2951 640 106.171H660C660 83.2024 651.383 62.2221 637.22 46.3247L622.286 59.6285ZM639.283 56.0063C645.09 37.7423 647.652 19.1746 641.772 -0.583643L622.603 5.12045C626.923 19.6371 625.348 33.8264 620.223 49.9468L639.283 56.0063ZM641.756 -0.637965C639.782 -7.13593 632.61 -11.7045 625.308 -9.41732L631.286 9.6683C629.093 10.3552 627.11 9.88273 625.783 9.14218C624.469 8.40888 623.203 7.09489 622.619 5.17477L641.756 -0.637965ZM625.302 -9.41544C606.497 -3.51225 593.477 7.32861 581 21.8131L596.154 34.8659C607.205 22.0362 617.274 14.0668 631.292 9.66642L625.302 -9.41544ZM570 36.1715C575.611 36.1715 581.054 36.8295 586.263 38.0682L590.89 18.6108C584.176 17.0143 577.18 16.1715 570 16.1715V36.1715ZM357.448 36.1715H570V16.1715H357.448V36.1715ZM327.328 36.1715L357.448 36.1715L357.448 16.1715L327.328 16.1715L327.328 36.1715ZM295.692 36.1715L327.328 36.1715L327.328 16.1715L295.692 16.1715L295.692 36.1715ZM80 36.1715H295.692V16.1715H80V36.1715ZM61.8453 38.5461C67.6242 36.9992 73.7077 36.1715 80 36.1715V16.1715C71.9459 16.1715 64.1241 17.2319 56.6736 19.2264L61.8453 38.5461Z" fill="#F4994B" mask="url(#path-1-inside-1)"/>
</svg>
