<svg width="194" height="50" viewBox="0 0 194 50" fill="none" xmlns="http://www.w3.org/2000/svg">
<path fill-rule="evenodd" clip-rule="evenodd" d="M96.104 18.3812C96.3582 18.127 96.6746 18 97.045 18C97.4123 18 97.7224 18.1188 97.9655 18.3607C98.2205 18.5901 98.349 18.8831 98.349 19.2311C98.349 19.5906 98.2211 19.9005 97.9678 20.1539C97.7244 20.3973 97.4134 20.5169 97.045 20.5169C96.6765 20.5169 96.3609 20.3973 96.1062 20.1561L96.1051 20.155L96.104 20.1539C95.8623 19.9122 95.741 19.6144 95.741 19.2676C95.741 18.9207 95.8623 18.6229 96.104 18.3812ZM103.876 22.4997C104.492 22.198 105.234 22.0499 106.099 22.0499H106.217V23.9987L106.084 23.9821C105.994 23.9708 105.866 23.9647 105.697 23.9647C104.774 23.9647 104.06 24.2419 103.539 24.7857C103.031 25.3163 102.769 26.0855 102.769 27.1119V32.0462H100.781V22.1411H102.696V23.4744C102.996 23.0628 103.39 22.7377 103.876 22.4997ZM110.869 22.4997C111.485 22.198 112.227 22.0499 113.092 22.0499H113.21V23.9987L113.077 23.9821C112.987 23.9708 112.859 23.9647 112.69 23.9647C111.767 23.9647 111.052 24.2419 110.532 24.7857C110.024 25.3163 109.762 26.0855 109.762 27.1119V32.0462H107.774V22.1411H109.689V23.4744C109.989 23.0628 110.383 22.7377 110.869 22.4997ZM116.29 22.7029C117.075 22.2668 117.959 22.0499 118.937 22.0499C119.916 22.0499 120.793 22.2667 121.567 22.7031C122.351 23.1269 122.963 23.726 123.4 24.4988C123.849 25.2604 124.072 26.1265 124.072 27.0936C124.072 28.0611 123.849 28.9331 123.4 29.7067C122.963 30.4675 122.351 31.0663 121.567 31.5021C120.794 31.9387 119.916 32.1557 118.937 32.1557C117.958 32.1557 117.075 31.9386 116.289 31.5023C115.505 31.0666 114.888 30.468 114.439 29.7077L114.438 29.7067L114.438 29.7058C114.001 28.9323 113.784 28.0606 113.784 27.0936C113.784 26.1267 114.001 25.2607 114.438 24.4991L114.438 24.4985C114.887 23.7259 115.505 23.1267 116.29 22.7029ZM128.987 22.4997C129.603 22.198 130.346 22.0499 131.21 22.0499H131.328V23.9987L131.196 23.9821C131.105 23.9708 130.977 23.9647 130.809 23.9647C129.886 23.9647 129.171 24.2419 128.65 24.7857C128.143 25.3163 127.881 26.0855 127.881 27.1119V32.0462H125.893V22.1411H127.808V23.4744C128.108 23.0628 128.501 22.7377 128.987 22.4997ZM96.0511 22.1411H98.0389V32.0462H96.0511V22.1411ZM117.317 24.223C116.851 24.4912 116.477 24.8762 116.195 25.3814C115.926 25.8722 115.79 26.4418 115.79 27.0936C115.79 27.745 115.926 28.3208 116.195 28.8242C116.477 29.3169 116.851 29.7024 117.318 29.9832C117.797 30.2516 118.336 30.3868 118.937 30.3868C119.539 30.3868 120.071 30.2514 120.538 29.9832C121.018 29.7023 121.391 29.3169 121.661 28.8251C121.93 28.3215 122.066 27.7454 122.066 27.0936C122.066 26.4416 121.93 25.8719 121.661 25.3809L121.66 25.3799C121.391 24.876 121.018 24.4915 120.539 24.2232L120.538 24.2226C120.072 23.9543 119.539 23.8188 118.937 23.8188C118.336 23.8188 117.797 23.9542 117.317 24.223Z" fill="#DCFF1C"/>
<path fill-rule="evenodd" clip-rule="evenodd" d="M178.318 18.2737H180.305V28.9362C180.305 29.4415 180.423 29.8108 180.64 30.0616C180.867 30.3089 181.207 30.4415 181.683 30.4415C181.971 30.4415 182.24 30.3841 182.491 30.2697L182.648 30.1987L182.755 31.8994L182.672 31.9297C182.257 32.0804 181.824 32.1557 181.373 32.1557C180.415 32.1557 179.657 31.8939 179.118 31.3549L179.117 31.3539C178.579 30.8031 178.318 30.0404 178.318 29.0821V18.2737ZM191.715 18.2737H193.703V32.0462H191.788V30.7351C191.425 31.1555 190.989 31.4857 190.479 31.7249C189.866 32.0127 189.192 32.1557 188.459 32.1557C187.504 32.1557 186.645 31.9448 185.884 31.5205C185.123 31.0965 184.524 30.5033 184.087 29.743L184.087 29.742L184.086 29.741C183.662 28.9674 183.451 28.0838 183.451 27.0937C183.451 26.1035 183.662 25.2258 184.087 24.4639L184.087 24.4626C184.524 23.7023 185.123 23.1091 185.884 22.6851C186.645 22.2608 187.504 22.0499 188.459 22.0499C189.167 22.0499 189.822 22.1867 190.423 22.4616C190.923 22.6805 191.354 22.9906 191.715 23.3911V18.2737ZM138.668 19.0399H140.728V26.7836C140.728 27.9918 140.986 28.876 141.48 29.457C141.971 30.0344 142.713 30.3321 143.73 30.3321C144.715 30.3321 145.465 30.0422 145.997 29.4755C146.527 28.9107 146.804 28.0217 146.804 26.7836V19.0399H148.865V26.7836C148.865 28.0219 149.135 28.9111 149.654 29.476C150.186 30.0424 150.936 30.3321 151.92 30.3321C152.943 30.3321 153.69 30.0342 154.184 29.4567C154.681 28.8757 154.94 27.9917 154.94 26.7836V19.0399H157.001V26.8383C157.001 28.5837 156.564 29.9255 155.672 30.8429C154.792 31.7478 153.535 32.1922 151.92 32.1922C150.97 32.1922 150.126 32.0255 149.39 31.6889L149.389 31.6884L149.388 31.6879C148.724 31.3673 148.198 30.9395 147.815 30.4032C147.422 30.9388 146.897 31.3667 146.244 31.6875L146.244 31.6879L146.243 31.6882C145.531 32.0257 144.692 32.1922 143.73 32.1922C142.115 32.1922 140.858 31.7478 139.978 30.8429L139.977 30.8423C139.098 29.9249 138.668 28.5833 138.668 26.8383V19.0399ZM161.485 22.7029C162.271 22.2668 163.154 22.0499 164.133 22.0499C165.111 22.0499 165.989 22.2667 166.762 22.7031C167.547 23.1269 168.159 23.7261 168.595 24.4989C169.044 25.2606 169.268 26.1266 169.268 27.0937C169.268 28.0613 169.044 28.9334 168.595 29.707C168.158 30.4677 167.547 31.0663 166.763 31.5021C165.989 31.9387 165.111 32.1557 164.133 32.1557C163.154 32.1557 162.27 31.9387 161.485 31.5023C160.701 31.0666 160.083 30.4681 159.634 29.7078L159.634 29.7068L159.633 29.7058C159.197 28.9324 158.979 28.0607 158.979 27.0937C158.979 26.1267 159.197 25.2608 159.634 24.4991L159.634 24.4986C160.083 23.7259 160.7 23.1268 161.485 22.7029ZM174.183 22.4998C174.799 22.198 175.541 22.0499 176.406 22.0499H176.524V23.9987L176.391 23.9821C176.301 23.9708 176.173 23.9647 176.004 23.9647C175.081 23.9647 174.367 24.2419 173.846 24.7857C173.338 25.3163 173.076 26.0856 173.076 27.1119V32.0462H171.088V22.1411H173.003V23.4745C173.303 23.0628 173.697 22.7378 174.183 22.4998ZM162.513 24.223C162.046 24.4912 161.672 24.8763 161.39 25.3814C161.122 25.8723 160.985 26.4419 160.985 27.0937C160.985 27.745 161.121 28.3209 161.39 28.8242C161.672 29.3169 162.046 29.7025 162.514 29.9832C162.993 30.2516 163.532 30.3868 164.133 30.3868C164.734 30.3868 165.267 30.2514 165.733 29.9832C166.213 29.7023 166.587 29.3169 166.856 28.8251C167.125 28.3216 167.262 27.7454 167.262 27.0937C167.262 26.4417 167.125 25.8719 166.857 25.3809L166.856 25.3799C166.586 24.8761 166.213 24.4915 165.735 24.2233L165.734 24.2226C165.267 23.9543 164.734 23.8188 164.133 23.8188C163.531 23.8188 162.992 23.9542 162.513 24.223ZM186.985 24.223C186.518 24.4912 186.144 24.8762 185.862 25.3813C185.594 25.8721 185.457 26.4418 185.457 27.0937C185.457 27.745 185.593 28.3209 185.862 28.8242C186.144 29.3169 186.518 29.7025 186.986 29.9832C187.465 30.2516 188.004 30.3868 188.605 30.3868C189.193 30.3868 189.726 30.2517 190.206 29.9828C190.685 29.702 191.059 29.3168 191.328 28.8253C191.597 28.3217 191.734 27.7455 191.734 27.0937C191.734 26.4417 191.597 25.8719 191.329 25.3809L191.328 25.3799C191.058 24.8761 190.685 24.4915 190.207 24.2233C189.727 23.9541 189.194 23.8188 188.605 23.8188C188.003 23.8188 187.464 23.9542 186.985 24.223Z" fill="#DCFF1C"/>
<path fill-rule="evenodd" clip-rule="evenodd" d="M75 32.0434H77.0608V24.2997C77.0608 23.0915 77.3182 22.2073 77.8125 21.6263C78.3037 21.0489 79.0459 20.7512 80.062 20.7512C81.047 20.7512 81.7971 21.0411 82.3291 21.6078C82.8593 22.1726 83.1362 23.0616 83.1362 24.2997V32.0434H85.197V24.2997C85.197 23.0614 85.4679 22.1722 85.9863 21.6073C86.5183 21.0409 87.2683 20.7512 88.253 20.7512C89.2754 20.7512 90.0223 21.0491 90.5164 21.6266C91.0136 22.2076 91.2724 23.0916 91.2724 24.2997V32.0434H93.3332V24.245C93.3332 22.4996 92.8968 21.1578 92.0045 20.2404C91.1247 19.3355 89.8679 18.8911 88.253 18.8911C87.3027 18.8911 86.4584 19.0578 85.7228 19.3944L85.7217 19.3949L85.7206 19.3954C85.0566 19.716 84.5308 20.1438 84.147 20.6801C83.7544 20.1445 83.23 19.7166 82.5769 19.3958L82.5762 19.3954L82.5754 19.395C81.8631 19.0576 81.0241 18.8911 80.062 18.8911C78.4471 18.8911 77.1903 19.3355 76.3105 20.2404L76.3099 20.241C75.4302 21.1584 75 22.5 75 24.245V32.0434Z" fill="#DCFF1C"/>
<g clip-path="url(#clip0)">
<path d="M62.595 20.3571C61.9012 16.7208 60.3781 13.2935 58.1442 10.3416C57.0458 8.85675 55.7786 7.50457 54.368 6.31231C52.9466 5.11549 51.3703 4.11593 49.6816 3.34068C49.5716 3.29226 49.4725 3.23943 49.3657 3.1943L49.0422 3.06443L48.3939 2.80469C48.34 2.78378 48.2839 2.76066 48.231 2.74195L48.0659 2.68692L47.7357 2.57686L47.0754 2.35674L46.3952 2.17514L46.0573 2.0871L45.8889 2.04417L45.7172 2.01005L45.0349 1.88018C44.9248 1.85817 44.8059 1.83396 44.6915 1.81415L44.347 1.76682C42.5063 1.50333 40.6389 1.48446 38.7933 1.71069C37.0525 1.93858 35.3441 2.36889 33.703 2.99289C33.2342 2.8212 32.7598 2.66271 32.28 2.52844C31.3942 2.26986 30.4928 2.06804 29.5813 1.92421C28.6739 1.77567 27.759 1.67793 26.8408 1.63144L26.4974 1.61273L26.154 1.60503C25.9251 1.60503 25.6961 1.59402 25.4672 1.59182C25.0105 1.60173 24.5515 1.59182 24.0959 1.62374L23.4124 1.66006L22.73 1.71509L22.3888 1.74261L22.0498 1.78003L21.3708 1.85707C19.5456 2.08298 17.7508 2.50852 16.0185 3.12607C12.5268 4.36966 9.38306 6.43003 6.84938 9.13536C4.32491 11.8493 2.47216 15.1175 1.43998 18.6774C0.407788 22.2373 0.224936 25.9896 0.906109 29.633C1.59996 33.2693 3.12304 36.6966 5.35696 39.6485C6.45551 41.1332 7.7223 42.4857 9.13203 43.6789C10.5542 44.8752 12.1308 45.8747 13.8195 46.6506C13.9296 46.699 14.0286 46.7518 14.1354 46.798L14.459 46.9268L15.1072 47.1866C15.1611 47.2075 15.2173 47.2306 15.269 47.2504L15.4352 47.3043L15.7654 47.4144L16.4257 47.6345L17.1004 47.8106L17.4383 47.8986L17.6067 47.9416L17.7773 47.9757L18.4619 48.1111C18.5719 48.132 18.6897 48.1562 18.8041 48.176L19.1497 48.2233C20.9904 48.4868 22.8578 48.5057 24.7034 48.2795C26.4451 48.0547 28.1546 47.6269 29.797 47.005C30.2658 47.1766 30.7402 47.3351 31.2201 47.4705C32.106 47.7282 33.0074 47.9296 33.9188 48.0736C34.8262 48.2207 35.7411 48.317 36.6593 48.362L37.0027 48.3807L37.346 48.3884C37.575 48.3884 37.8039 48.3994 38.0328 48.4016C38.4896 48.3917 38.9474 48.4016 39.4042 48.3697L40.0876 48.3356L40.77 48.2806L41.1101 48.253L41.4502 48.2156L42.1293 48.1386C43.956 47.9121 45.7523 47.4859 47.4859 46.8674C50.9775 45.6235 54.1212 43.5632 56.6551 40.8581C59.1795 38.1442 61.0323 34.876 62.0644 31.3161C63.0966 27.7562 63.2795 24.0038 62.5983 20.3604L62.595 20.3571ZM33.8637 4.80339C34.7773 5.17875 35.6605 5.62436 36.5052 6.13622C37.9635 7.02763 39.298 8.10746 40.474 9.34778C41.6567 10.5971 42.6969 11.974 43.5755 13.453C44.4617 14.94 45.21 16.505 45.8108 18.1284C46.0694 18.8196 46.3006 19.5218 46.5086 20.2295C46.2085 19.936 45.9029 19.6505 45.5918 19.3732C44.5291 18.4197 43.4092 17.5321 42.2382 16.7152C41.0621 15.899 39.8362 15.1569 38.5677 14.4931C37.2925 13.8306 35.973 13.2569 34.6187 12.7762C34.4492 12.7167 34.2809 12.6529 34.1092 12.5979L33.5941 12.4339C33.2529 12.3238 32.904 12.2259 32.5584 12.1268C32.2128 12.0278 31.8595 11.9463 31.5106 11.8583L31.2465 11.7856L30.9768 11.7284C30.7974 11.6888 30.6158 11.6579 30.4353 11.6183C28.9751 11.3575 27.4846 11.3108 26.0109 11.4797C25.695 11.5171 25.3814 11.5677 25.0688 11.6271C25.3197 11.2837 25.5806 10.9477 25.8513 10.619C26.9438 9.30697 28.2016 8.14201 29.5934 7.15318C30.9179 6.20228 32.3516 5.4134 33.8637 4.80339ZM29.6363 45.1868C28.7223 44.8123 27.8391 44.3666 26.9948 43.8539C25.5352 42.9625 24.1993 41.8827 23.0217 40.6424C21.8397 39.3925 20.7995 38.0157 19.9202 36.5371C19.0347 35.0499 18.2868 33.4849 17.6859 31.8617C17.4273 31.1706 17.1951 30.4684 16.9881 29.7607C17.2882 30.0542 17.5938 30.3396 17.905 30.617C18.9675 31.5701 20.087 32.4578 21.2574 33.2749C22.4358 34.091 23.6634 34.8335 24.9334 35.4981C26.2091 36.1612 27.5289 36.7356 28.8835 37.2173C29.053 37.2767 29.2214 37.3405 29.3931 37.3956L29.9082 37.5596C30.2493 37.6696 30.5982 37.7676 30.9438 37.8666C31.2894 37.9657 31.6427 38.0471 31.9916 38.1352L32.2546 38.2001L32.5243 38.2573C32.7037 38.297 32.8853 38.3278 33.0658 38.3674C34.526 38.6283 36.0165 38.675 37.4902 38.5061C37.8061 38.4687 38.1198 38.418 38.4323 38.3586C38.1814 38.702 37.9206 39.038 37.6498 39.3668C36.5584 40.6753 35.302 41.8369 33.9122 42.8227C32.5866 43.7789 31.151 44.5726 29.6363 45.1868ZM60.4301 30.8426C59.4795 34.1489 57.7653 37.1856 55.4257 39.7079C53.0774 42.2227 50.1619 44.1396 46.9224 45.299C45.304 45.88 43.6264 46.2808 41.9202 46.4943L41.2741 46.5691L40.9505 46.6054L40.6269 46.6318L39.9787 46.6858L39.3304 46.7188C38.899 46.7474 38.4676 46.7408 38.035 46.7507C37.8149 46.7507 37.6036 46.743 37.389 46.7397L37.0654 46.7331L36.7429 46.7155C35.8839 46.6762 35.0278 46.5891 34.1785 46.4547C33.4634 46.3428 32.755 46.1918 32.0565 46.0023C33.0569 45.4909 34.0168 44.904 34.928 44.2468C36.4382 43.1689 37.8026 41.9 38.987 40.4718C39.7359 39.5604 40.4171 38.5955 41.0254 37.5849C41.2774 37.4803 41.5283 37.3703 41.7727 37.2481C42.4443 36.9152 43.0814 36.5167 43.6745 36.0583C44.2636 35.6011 44.8089 35.09 45.3034 34.5318L45.3111 34.5219L45.3188 34.5153C45.6346 34.15 45.9231 33.7619 46.1817 33.3542C46.4601 32.918 46.6757 32.4449 46.8222 31.9487C46.9028 31.6655 46.9432 31.3725 46.9422 31.0781C46.9456 30.7155 46.8497 30.3589 46.6649 30.0468C46.5489 29.8549 46.3922 29.6907 46.2058 29.566C46.0194 29.4412 45.8079 29.3589 45.5863 29.3248C45.3784 29.2937 45.1665 29.303 44.9622 29.3524C44.7807 29.3945 44.6062 29.4623 44.4438 29.5538C44.2986 29.6364 44.1628 29.7345 44.0388 29.8465L43.8858 29.9874L43.8748 29.9984C43.9817 29.2305 44.0006 28.4528 43.931 27.6805C43.9178 27.4362 43.866 27.1919 43.8308 26.9486C43.8143 26.8265 43.7813 26.7054 43.7538 26.5843L43.6668 26.2222C43.5302 25.7375 43.3458 25.2674 43.1165 24.819L43.0307 24.6495C43.002 24.5934 42.9657 24.5394 42.9338 24.4844L42.7324 24.1542C42.5861 23.941 42.4277 23.7363 42.258 23.5412C42.0867 23.3433 41.9029 23.1565 41.7077 22.9821C41.5045 22.8089 41.2889 22.6508 41.0628 22.5088C40.5971 22.2127 40.0813 22.0042 39.5406 21.8936C38.9783 21.7869 38.3994 21.8046 37.8446 21.9453C37.2967 22.087 36.7845 22.3419 36.3412 22.6937C36.2311 22.7774 36.1365 22.8731 36.0341 22.9634C35.9846 23.0096 35.9318 23.0547 35.8855 23.1031L35.7535 23.2517C35.6676 23.353 35.5719 23.4498 35.4959 23.5555L35.2681 23.8747C35.1945 23.9809 35.1269 24.0911 35.0656 24.2048C35.0029 24.3149 34.9357 24.425 34.8785 24.535L34.72 24.8762C34.6648 24.9878 34.6159 25.1025 34.5736 25.2196L34.4459 25.5674C34.425 25.6246 34.4019 25.6829 34.3843 25.7413L34.3337 25.9163C34.2687 26.1518 34.1917 26.3774 34.1466 26.6262C34.1015 26.8749 34.0552 27.1159 34.02 27.3614C34.0046 27.4846 33.9969 27.6079 33.9859 27.7323L33.9716 27.9172L33.9661 28.1032C33.9492 28.5986 33.9787 29.0946 34.0541 29.5846C34.1629 30.3331 34.3856 31.0606 34.7145 31.7418L34.9005 32.0808C34.9303 32.1382 34.9637 32.1938 35.0007 32.247L35.1107 32.4109C35.4092 32.8565 35.7762 33.2521 36.1981 33.5831C36.6407 33.9175 37.1437 34.1634 37.6795 34.3073C37.9458 34.3771 38.2175 34.4239 38.4918 34.4471L38.8979 34.4537H38.9991L39.0982 34.4449L39.2963 34.4261C39.5558 34.3997 39.8132 34.3556 40.0667 34.2941C40.1922 34.2633 40.3122 34.2225 40.4343 34.184C40.5561 34.1499 40.6759 34.1091 40.7931 34.0618C40.8361 34.0453 40.8768 34.0266 40.9186 34.0101C40.7667 34.3638 40.6053 34.713 40.4343 35.0579C40.2472 35.4328 40.0495 35.8034 39.8411 36.1695C39.0197 36.3807 38.1773 36.4995 37.3295 36.5239C37.0071 36.5349 36.6835 36.5371 36.3599 36.5239C36.0363 36.5107 35.7127 36.4942 35.3892 36.4678C34.742 36.4083 34.0971 36.3181 33.4543 36.197C33.1318 36.1343 32.8182 36.0716 32.4913 35.9901C32.1644 35.9087 31.8397 35.8404 31.5194 35.7458C31.1992 35.6511 30.8734 35.5719 30.5553 35.4673L30.0765 35.3165C29.917 35.267 29.7607 35.2065 29.6022 35.1536C28.3349 34.7127 27.0962 34.1937 25.8931 33.5996C24.6886 32.9971 23.5184 32.3283 22.3877 31.5965C21.8242 31.2256 21.2629 30.8481 20.717 30.4486C20.1711 30.049 19.6362 29.6363 19.1101 29.2104C18.584 28.7845 18.0722 28.3409 17.5693 27.8897C17.3205 27.6615 17.0751 27.4303 16.833 27.1963C16.7134 27.0796 16.5949 26.9619 16.4775 26.843C16.3674 26.7263 16.2397 26.5998 16.1473 26.4941L16.1385 26.4831C16.0269 26.3516 15.8756 26.26 15.7073 26.2223C15.5391 26.1845 15.3631 26.2025 15.206 26.2736C15.049 26.3448 14.9193 26.4651 14.8368 26.6165C14.7542 26.7679 14.7232 26.9421 14.7484 27.1126C14.7682 27.2458 14.7858 27.3537 14.8068 27.4703L14.8717 27.8126C14.9157 28.0393 14.9641 28.2628 15.0148 28.4862C15.1168 28.933 15.2268 29.3762 15.3449 29.8157C15.5885 30.6962 15.8692 31.5638 16.1869 32.4186C16.8196 34.1339 17.6072 35.788 18.54 37.3604C19.4778 38.9444 20.5885 40.4194 21.8517 41.7584C23.1236 43.1027 24.5668 44.2738 26.1441 45.2418C26.5542 45.4927 26.9728 45.7286 27.3999 45.9495C26.4464 46.2183 25.4751 46.4191 24.4932 46.5504C22.8039 46.7585 21.0946 46.743 19.4095 46.5042L19.0936 46.4624C18.9835 46.4436 18.8856 46.4216 18.781 46.4018L18.157 46.2797L18.0007 46.2499L17.8466 46.2103L17.5385 46.13L16.9232 45.9704L16.3179 45.7723L16.0163 45.6732L15.8644 45.6237C15.8149 45.6061 15.7665 45.5852 15.717 45.5654L15.1259 45.3298L14.8299 45.2121C14.733 45.1713 14.6384 45.1218 14.5415 45.0778C12.9948 44.3677 11.551 43.4522 10.2491 42.356C8.94059 41.2505 7.76463 39.997 6.74482 38.6206C4.66218 35.8799 3.24067 32.6953 2.59114 29.3149C1.95448 25.9347 2.11885 22.4523 3.07108 19.147C4.0233 15.8417 5.73687 12.8056 8.07435 10.2822C10.4225 7.76773 13.3375 5.8508 16.5765 4.69112C18.1954 4.11026 19.8733 3.70942 21.5799 3.49587L22.2259 3.42103L22.5495 3.38471L22.8731 3.35829L23.5213 3.30436L24.1685 3.27135C24.601 3.24273 25.0325 3.24933 25.465 3.23943C25.6851 3.23943 25.8953 3.24713 26.1111 3.25043L26.4346 3.25704L26.7571 3.27465C27.6158 3.31507 28.4716 3.40325 29.3204 3.53879C30.0355 3.6507 30.7439 3.80171 31.4424 3.99114C30.4418 4.50409 29.4818 5.0928 28.5709 5.75211C27.0609 6.83036 25.6966 8.09923 24.5119 9.52718C23.7631 10.4386 23.0818 11.4034 22.4736 12.4141C22.2204 12.5241 21.9706 12.6342 21.7263 12.7508C21.0546 13.0837 20.4175 13.4822 19.8244 13.9406C19.2352 14.3981 18.6896 14.9092 18.1944 15.4671L18.1878 15.477L18.1801 15.4847C17.864 15.8494 17.5756 16.2372 17.3172 16.6448C17.0403 17.0794 16.8254 17.5506 16.6789 18.0448C16.5984 18.3279 16.558 18.621 16.5589 18.9153C16.5552 19.278 16.6512 19.6347 16.8363 19.9466C16.9522 20.1386 17.109 20.3027 17.2953 20.4275C17.4817 20.5522 17.6932 20.6345 17.9149 20.6686C18.1227 20.6997 18.3346 20.6904 18.5389 20.6411C18.7201 20.5992 18.8943 20.5313 19.0562 20.4397C19.2019 20.3574 19.3381 20.2592 19.4623 20.1469L19.6153 20.006L19.6263 19.995C19.5194 20.763 19.5006 21.5407 19.5702 22.3129C19.5834 22.5572 19.6351 22.8016 19.6703 23.0448C19.6868 23.167 19.7199 23.288 19.7474 23.4091L19.8343 23.7712C19.971 24.256 20.1553 24.726 20.3846 25.1745L20.4705 25.344C20.4991 25.4001 20.5354 25.454 20.5673 25.5091L20.7687 25.8392C20.9151 26.0524 21.0735 26.2571 21.2431 26.4523C21.4144 26.6502 21.5982 26.8369 21.7934 27.0114C21.9966 27.1845 22.2122 27.3427 22.4383 27.4846C22.904 27.7807 23.4199 27.9892 23.9605 28.0999C24.5228 28.2065 25.1017 28.1889 25.6565 28.0481C26.2044 27.9063 26.7165 27.6513 27.1599 27.2997C27.27 27.2161 27.3647 27.1203 27.467 27.0301C27.5165 26.9839 27.5694 26.9398 27.6156 26.8903L27.7477 26.7417C27.8335 26.6405 27.9293 26.5436 28.0052 26.438L28.233 26.1199C28.3063 26.0135 28.3739 25.9033 28.4355 25.7897C28.4983 25.6796 28.5654 25.5696 28.6226 25.4595L28.7811 25.1183C28.8363 25.0067 28.8852 24.8921 28.9275 24.775L29.0552 24.4283C29.0761 24.3699 29.0992 24.3127 29.1168 24.2544L29.1674 24.0794C29.2324 23.8438 29.3094 23.6171 29.3545 23.3684C29.3997 23.1196 29.4459 22.8797 29.4811 22.6332C29.4965 22.5099 29.5042 22.3866 29.5152 22.2634L29.5295 22.0774L29.535 21.8914C29.5519 21.3959 29.5224 20.8999 29.447 20.41C29.3752 19.914 29.2524 19.4268 29.0805 18.9561C28.9936 18.717 28.8944 18.4827 28.7833 18.2539L28.5973 17.9138C28.5671 17.8565 28.5337 17.801 28.4972 17.7476L28.3871 17.5836C28.0896 17.1371 27.7233 16.7404 27.3019 16.4082C26.8593 16.0737 26.3563 15.8278 25.8205 15.684C25.5544 15.6139 25.2826 15.5675 25.0083 15.5453L24.6021 15.5376H24.5009L24.4018 15.5464L24.2037 15.5651C23.9442 15.5916 23.6868 15.6358 23.4333 15.6972C23.3089 15.728 23.189 15.7687 23.0668 15.8072C22.945 15.8413 22.8253 15.8821 22.708 15.9294L22.5814 15.9811C22.7348 15.6275 22.8966 15.2782 23.0668 14.9333C23.2539 14.5584 23.4516 14.1879 23.66 13.8217C24.4814 13.6106 25.3238 13.4917 26.1716 13.4673C26.4941 13.4563 26.8177 13.4541 27.1412 13.4673C27.4648 13.4805 27.7884 13.4971 28.112 13.5246C28.7591 13.5833 29.4041 13.6732 30.0468 13.7942C30.3693 13.857 30.683 13.9197 31.0099 14.0022C31.3367 14.0848 31.6614 14.1508 31.9817 14.2455C32.302 14.3401 32.6277 14.4194 32.9447 14.525L33.4235 14.6747C33.5842 14.7242 33.7405 14.7848 33.8989 14.8376C35.1662 15.2785 36.4049 15.7975 37.608 16.3916C38.812 16.9924 39.9819 17.6593 41.1123 18.3892C41.6758 18.7612 42.2371 19.1377 42.783 19.5372C43.3289 19.9367 43.8638 20.3505 44.3899 20.7754C44.916 21.2002 45.4278 21.6448 45.9308 22.0961C46.1795 22.3239 46.4249 22.5561 46.666 22.7895C46.787 22.9061 46.9059 23.025 47.0226 23.1428C47.1392 23.2605 47.2603 23.3871 47.3582 23.4916L47.367 23.5027C47.4786 23.634 47.6298 23.7254 47.7979 23.7632C47.966 23.801 48.1418 23.7831 48.2988 23.7121C48.4558 23.6411 48.5854 23.521 48.6681 23.3698C48.7508 23.2186 48.782 23.0447 48.7571 22.8742C48.7373 22.7399 48.7197 22.6332 48.6988 22.5154L48.6338 22.1731C48.5898 21.953 48.5414 21.723 48.4908 21.4996C48.3888 21.0527 48.2769 20.6095 48.1551 20.17C47.9122 19.2895 47.6316 18.4219 47.3131 17.5671C46.6805 15.8516 45.8925 14.1975 44.9589 12.6254C44.0218 11.0415 42.9114 9.56684 41.6483 8.22847C40.3764 6.88418 38.9333 5.713 37.3559 4.74505C36.9451 4.49412 36.5265 4.25822 36.1002 4.03737C37.0572 3.76808 38.0323 3.56726 39.0179 3.43644C40.7071 3.22832 42.4164 3.24387 44.1016 3.48266L44.4141 3.53109C44.5187 3.5498 44.6221 3.57181 44.7267 3.59162L45.3507 3.71379L45.507 3.7435L45.6611 3.78313L45.9693 3.86347L46.5845 4.02416L47.1887 4.22227L47.4914 4.32022L47.6433 4.36975C47.6928 4.38736 47.7413 4.40937 47.7908 4.42808L48.3763 4.66031L48.6713 4.77807C48.7692 4.8199 48.8639 4.86832 48.9596 4.91235C50.5064 5.62228 51.9502 6.53781 53.252 7.63414C54.5605 8.73967 55.7365 9.99319 56.7563 11.3696C58.8374 14.1106 60.2574 17.2953 60.9056 20.6752C61.5427 24.055 61.3799 27.537 60.4301 30.8426ZM41.7375 31.7473C41.266 32.0622 40.761 32.3239 40.2318 32.5276C40.1428 32.5626 40.0516 32.592 39.9589 32.6157C39.8675 32.641 39.7773 32.6729 39.6859 32.6938C39.5075 32.734 39.3266 32.7623 39.1444 32.7785L39.0102 32.7907H38.9441H38.8781H38.6172C38.4485 32.7742 38.2814 32.744 38.1176 32.7004C37.7938 32.6116 37.4898 32.4622 37.2217 32.2602C36.9456 32.0373 36.7057 31.773 36.5107 31.4765L36.4347 31.3665C36.4087 31.3284 36.3852 31.2887 36.3643 31.2476L36.2311 31.0011C36.149 30.8295 36.0755 30.6539 36.011 30.475C35.8793 30.1089 35.7863 29.7301 35.7337 29.3447C35.6759 28.9553 35.6549 28.5614 35.6709 28.1681V28.0195L35.6841 27.8732C35.694 27.7752 35.6995 27.6761 35.7116 27.5793C35.7425 27.3856 35.7678 27.1908 35.8151 27.0015C35.9978 26.231 36.2707 25.4485 36.689 24.8388L36.8497 24.6187C36.9025 24.5427 36.9663 24.4833 37.0236 24.4151L37.1116 24.3138C37.1413 24.2819 37.1754 24.2555 37.2074 24.2257C37.2723 24.1707 37.3328 24.1058 37.4 24.0552C37.6551 23.8524 37.9498 23.7051 38.265 23.6226C38.5751 23.5448 38.8984 23.535 39.2127 23.594C39.5448 23.6651 39.8613 23.7956 40.1471 23.9792C40.2974 24.0739 40.4409 24.1791 40.5763 24.294C40.7119 24.4162 40.8398 24.5467 40.9593 24.6847C41.0812 24.825 41.1951 24.972 41.3005 25.1249L41.448 25.3671C41.4722 25.4089 41.4997 25.4463 41.5206 25.4892L41.5845 25.618C41.7596 25.9623 41.9008 26.3228 42.006 26.6944L42.0731 26.9806C42.0983 27.0752 42.1185 27.1711 42.1337 27.2678C42.1612 27.4648 42.2052 27.6563 42.214 27.8566L42.2393 28.1549C42.2492 28.254 42.2393 28.3552 42.2459 28.4543V28.7558C42.2459 28.856 42.2349 28.9572 42.2294 29.0585L42.2129 29.3612L42.1744 29.6638L42.137 29.9665L42.0819 30.2747C41.9928 30.76 41.8827 31.2553 41.7375 31.7473ZM43.3014 32.6124L43.5788 32.3922C43.6723 32.3196 43.7648 32.247 43.8506 32.1721L44.3767 31.711L44.8764 31.2289L45.0007 31.1078L45.0932 31.0209C45.1331 30.9834 45.1766 30.9498 45.2231 30.9207C45.263 30.8952 45.3075 30.8776 45.354 30.869C45.3918 30.9428 45.4099 31.025 45.4069 31.1078C45.4089 31.2587 45.39 31.409 45.3507 31.5547C45.2489 31.9135 45.0977 32.2565 44.9017 32.5738C44.6934 32.9207 44.4598 33.2518 44.2028 33.5644C43.6509 34.1666 43.0183 34.6896 42.323 35.1184C42.6928 34.3107 43.0108 33.4803 43.275 32.6322L43.3014 32.6124ZM21.7626 18.2429C22.236 17.928 22.7428 17.6663 23.2737 17.4625C23.3628 17.4276 23.4539 17.3982 23.5467 17.3745C23.638 17.3492 23.7283 17.3173 23.8196 17.2963C23.998 17.256 24.1789 17.2277 24.3611 17.2116L24.4943 17.1995L24.5614 17.194H24.6274H24.8883C25.0567 17.2104 25.2234 17.2406 25.3869 17.2842C25.7111 17.3728 26.0155 17.5222 26.2839 17.7245C26.5597 17.9476 26.7995 18.2119 26.9948 18.5081L27.0697 18.6182C27.0965 18.6559 27.1204 18.6957 27.1412 18.737L27.2744 18.9836C27.5221 19.5075 27.6891 20.066 27.7697 20.64C27.8275 21.0297 27.8485 21.424 27.8324 21.8176V21.9651L27.8192 22.1115C27.8093 22.2094 27.8038 22.3085 27.7917 22.4053C27.7609 22.5991 27.7356 22.7939 27.6882 22.9832C27.5055 23.7536 27.2315 24.5361 26.8077 25.1459L26.6482 25.366C26.5953 25.4419 26.5304 25.5013 26.4743 25.5696L26.3862 25.6708C26.3565 25.7039 26.3224 25.7292 26.2905 25.7589C26.2255 25.8139 26.165 25.8789 26.0979 25.9295C25.8424 26.1324 25.5474 26.2798 25.2317 26.362C24.9216 26.4399 24.5983 26.4497 24.2841 26.3906C23.9524 26.3193 23.6362 26.1888 23.3507 26.0054C23.2004 25.9112 23.057 25.8063 22.9215 25.6918C22.7862 25.5689 22.6583 25.438 22.5385 25.2999C22.4167 25.1597 22.3028 25.0127 22.1973 24.8597L22.0498 24.6176C22.0256 24.5768 21.9981 24.5383 21.9772 24.4954L21.9134 24.3666C21.7384 24.0227 21.5972 23.6626 21.4918 23.2913L21.4247 23.0052C21.4038 22.9094 21.3752 22.8148 21.3631 22.7168C21.3366 22.5209 21.2926 22.3283 21.2838 22.128L21.2585 21.8297C21.2486 21.7307 21.2585 21.6294 21.2519 21.5304V21.2288C21.2519 21.1286 21.2629 21.0274 21.2684 20.9261L21.2849 20.6235L21.3234 20.3208L21.3609 20.0181L21.4159 19.71C21.5039 19.2301 21.6228 18.7348 21.7626 18.2429ZM20.2008 17.3778L19.9224 17.5979C19.8299 17.6705 19.7375 17.7443 19.6516 17.818L19.1233 18.2792L18.6236 18.7612L18.4993 18.8823L18.4068 18.9693C18.3667 19.0071 18.3228 19.0406 18.2759 19.0694C18.2364 19.095 18.1923 19.1126 18.146 19.1211C18.1083 19.0474 18.0901 18.9651 18.0932 18.8823C18.0912 18.7315 18.1101 18.5811 18.1493 18.4355C18.2512 18.0766 18.4023 17.7337 18.5983 17.4163C18.8066 17.0694 19.0402 16.7383 19.2972 16.4258C19.8479 15.8226 20.4794 15.2985 21.1737 14.8684C20.804 15.6763 20.4857 16.5067 20.2206 17.3547C20.2147 17.363 20.2081 17.3707 20.2008 17.3778Z" fill="#DCFF1C"/>
</g>
<defs>
<clipPath id="clip0">
<rect width="62.5" height="46.8901" fill="white" transform="translate(0.5 1.55)"/>
</clipPath>
</defs>
</svg>
