<svg width="89" height="95" viewBox="0 0 89 95" fill="none" xmlns="http://www.w3.org/2000/svg">
<path d="M0 30.3245C0 30.3245 32.7831 11.4289 38.037 8.41791C44.9193 4.45444 49.2515 4.45444 56.1338 8.41791C60.3431 10.8452 63.2004 12.5043 63.2004 12.5043L53.0613 18.342C53.0613 18.342 51.8631 17.6353 51.6173 17.5124C48.5755 15.7304 45.5338 15.7611 42.4921 17.5431C39.9112 19.0179 10.1391 36.1622 10.1391 36.1622L0 30.3245Z" fill="#1C40FF"/>
<path d="M40.8338 28.0818L50.9729 33.9195L38.7446 40.9554C38.7446 40.9554 41.5098 42.553 42.5237 43.1368C45.5654 44.8881 48.6072 44.8881 51.6796 43.1368C53.8918 41.8464 59.5451 38.5896 59.5451 38.5896L69.6842 44.4272C69.6842 44.4272 60.3747 49.7733 56.1654 52.2006C49.2831 56.164 44.9509 56.164 38.0686 52.2006C30.4489 47.8069 18.4971 40.9246 18.4971 40.9246L40.8338 28.0818Z" fill="#1C40FF"/>
<path d="M69.559 23.1966L75.7039 19.6632L65.5648 13.8256L43.1973 26.6992L53.3364 32.5368L59.4506 29.0342L77.916 39.6649L88.0552 33.8273L69.559 23.1966Z" fill="#1C40FF"/>
<path d="M0 27.6217C0 27.6217 32.7831 8.72604 38.037 5.71503C44.9193 1.75156 49.2515 1.75156 56.1338 5.71503C60.3431 8.14228 63.2004 9.8014 63.2004 9.8014L53.0613 15.6391C53.0613 15.6391 51.8631 14.9324 51.6173 14.8095C48.5755 13.0275 45.5338 13.0582 42.4921 14.8402C39.9112 16.2843 10.1391 33.4593 10.1391 33.4593L0 27.6217Z" fill="#00FFB3"/>
<path d="M40.8338 25.3468L50.9729 31.1845L38.7446 38.2204C38.7446 38.2204 41.5098 39.8181 42.5237 40.4018C45.5654 42.1531 48.6072 42.1531 51.6796 40.4018C53.8918 39.1114 59.5451 35.8546 59.5451 35.8546L69.6842 41.6923C69.6842 41.6923 60.3747 47.0383 56.1654 49.4656C49.2831 53.429 44.9509 53.429 38.0686 49.4656C30.4489 45.072 18.4971 38.1897 18.4971 38.1897L40.8338 25.3468Z" fill="#00FFB3"/>
<path d="M69.5536 20.4928L75.6677 16.9595L65.5286 11.1218L43.1611 23.9954L53.3002 29.8331L59.4144 26.3305L77.8799 36.9612L88.019 31.1235L69.5536 20.4928Z" fill="#00FFB3"/>
<path d="M0 24.8873C0 24.8873 32.7831 5.99167 38.037 2.98066C44.9193 -0.982811 49.2515 -0.982811 56.1338 2.98066C60.3431 5.4079 63.2004 7.06703 63.2004 7.06703L53.0613 12.9047C53.0613 12.9047 51.8631 12.198 51.6173 12.0751C48.5755 10.2931 45.5338 10.3238 42.4921 12.1059C39.9112 13.5806 10.1391 30.7249 10.1391 30.7249L0 24.8873Z" fill="black"/>
<path d="M40.8338 22.6434L50.9729 28.4811L38.7446 35.517C38.7446 35.517 41.5098 37.1147 42.5237 37.6985C45.5654 39.4498 48.6072 39.4498 51.6796 37.6985C53.8918 36.408 59.5451 33.1512 59.5451 33.1512L69.6842 38.9889C69.6842 38.9889 60.3747 44.335 56.1654 46.7622C49.2831 50.7257 44.9509 50.7257 38.0686 46.7622C30.4182 42.3993 18.4971 35.517 18.4971 35.517L40.8338 22.6434Z" fill="black"/>
<path d="M69.5536 17.7901L75.6677 14.2567L65.5286 8.41907L43.1611 21.2927L53.3002 27.1303L59.4144 23.6277L77.8799 34.2584L88.019 28.4208L69.5536 17.7901Z" fill="black"/>
<path d="M14.7092 76.8424V81.1131C10.9915 80.5294 8.93297 82.2499 8.93297 86.9508V94.5398H4.38574V77.0882H8.9637V79.6691C10.0083 77.6105 11.9747 76.443 14.7092 76.8424Z" fill="black"/>
<path d="M16.3643 85.7831C16.3643 80.5906 20.297 76.5964 25.6124 76.5964C30.4361 76.5964 33.4471 79.6996 34.1538 82.3112L29.9138 83.5095C29.5451 82.0654 27.9167 80.6214 25.6431 80.6214C22.755 80.6214 20.8808 83.0179 20.8808 85.7524C20.8808 88.4868 22.755 90.9141 25.6431 90.9141C27.9167 90.9141 29.5451 89.5622 29.9138 88.1181L34.1538 89.2857C33.4778 91.928 30.4361 94.9697 25.6738 94.9697C20.297 95.0312 16.3643 91.0063 16.3643 85.7831Z" fill="black"/>
<path d="M49.0851 93.9857C47.7025 94.5387 46.4735 94.8153 44.9987 94.8153C41.0045 94.8153 39.161 92.3573 39.161 88.5782V81.0506H36.2422V77.0565H39.161V71.4031H43.7697V77.0565H48.87V81.0506H43.7697V88.5474C43.7697 89.9608 44.4456 90.7596 45.8897 90.7596C46.6885 90.7596 47.2723 90.606 47.9482 90.268L49.0851 93.9857Z" fill="black"/>
<path d="M52.2227 92.0201C52.2227 90.5453 53.4209 89.347 54.9879 89.347C56.4934 89.347 57.6916 90.5453 57.6916 92.0201C57.6916 93.587 56.4934 94.816 54.9879 94.816C53.4209 94.816 52.2227 93.587 52.2227 92.0201Z" fill="black"/>
<path d="M72.654 94.5392V92.5421C71.5479 94.0169 69.5201 94.8772 66.9085 94.8158C64.8807 94.7543 63.2523 93.9862 62.2998 93.003C61.3166 91.9891 60.7021 90.9137 60.7021 89.3161C60.7021 86.4587 62.4534 84.3387 66.8471 83.7856C68.5369 83.5706 72.6233 83.1404 72.6233 83.1404V82.7717C72.6233 81.2048 71.1792 80.0987 68.6291 80.0987C66.8471 80.0987 65.2187 80.5596 64.0204 81.7578L61.3474 79.5456C63.1294 77.1491 65.6795 76.4117 68.9363 76.4117C73.883 76.4117 76.7404 78.5932 76.7404 83.8164V94.5699H72.654V94.5392ZM72.6233 86.305C72.6233 86.305 68.7213 86.7966 67.2158 86.981C65.4645 87.2268 64.7885 88.0256 64.7885 89.1624C64.7885 90.1149 65.7103 91.4053 67.6459 91.3439C69.1821 91.3131 70.3189 90.9752 71.1792 90.33C72.1624 89.5926 72.5926 88.425 72.5926 87.3497V86.305H72.6233Z" fill="black"/>
<path d="M79.8828 74.1069C79.8828 72.6014 81.0811 71.4031 82.6173 71.4031C84.1535 71.4031 85.3518 72.6014 85.3518 74.1069C85.3518 75.6431 84.1535 76.8721 82.6173 76.8721C81.1118 76.8721 79.8828 75.6739 79.8828 74.1069Z" fill="black"/>
<path d="M84.9183 78.7466H80.3096V94.539H84.9183V78.7466Z" fill="black"/>
</svg>
