<svg width="113" height="33" viewBox="0 0 113 33" fill="none" xmlns="http://www.w3.org/2000/svg">
<path d="M0 18.1173C0 18.1173 19.6106 6.81409 22.735 5.01293C26.852 2.64201 29.4435 2.64201 33.5604 5.01293C36.0783 6.46488 37.7876 7.43898 37.7876 7.43898L31.7225 10.931C31.7225 10.931 31.0057 10.5083 30.877 10.4348C29.0575 9.38717 27.2563 9.38717 25.4184 10.4348C23.8746 11.3537 6.06513 21.6277 6.06513 21.6277L0 18.1173Z" fill="#1C40FF"/>
<path d="M24.4253 16.7759L30.4904 20.2679L23.1755 24.4768C23.1755 24.4768 24.8297 25.4325 25.4178 25.7633C27.2373 26.8109 29.0569 26.8109 30.8948 25.7633C32.2181 24.9914 35.5999 23.0616 35.5999 23.0616L41.665 26.5536C41.665 26.5536 36.0961 29.77 33.5782 31.2219C29.4612 33.5928 26.8698 33.5928 22.7528 31.2219C18.1948 28.5937 11.0637 24.4768 11.0637 24.4768L24.4253 16.7759Z" fill="#1C40FF"/>
<path d="M41.6097 13.8718L45.2672 11.7582L39.2021 8.26611L25.822 15.967L31.8872 19.459L35.5446 17.3638L46.5905 23.723L52.6556 20.231L41.6097 13.8718Z" fill="#1C40FF"/>
<path d="M0 16.5C0 16.5 19.6106 5.19678 22.735 3.39562C26.852 1.0247 29.4435 1.0247 33.5604 3.39562C36.0783 4.84757 37.7876 5.82167 37.7876 5.82167L31.7225 9.31371C31.7225 9.31371 31.0057 8.89099 30.877 8.81747C29.0575 7.76986 27.2563 7.76986 25.4184 8.81747C23.8746 9.73643 6.06513 19.992 6.06513 19.992L0 16.5Z" fill="#00FFB3"/>
<path d="M24.4253 15.1582L30.4904 18.6502L23.1755 22.8591C23.1755 22.8591 24.8297 23.8148 25.4178 24.1456C27.2373 25.1932 29.0569 25.1932 30.8948 24.1456C32.2181 23.3737 35.5999 21.4439 35.5999 21.4439L41.665 24.9359C41.665 24.9359 36.0961 28.1523 33.5782 29.6042C29.4612 31.9752 26.8698 31.9752 22.7528 29.6042C18.1948 26.976 11.0637 22.8591 11.0637 22.8591L24.4253 15.1582Z" fill="#00FFB3"/>
<path d="M41.6097 12.236L45.2672 10.1407L39.2021 6.64868L25.822 14.3496L31.8872 17.8416L35.5446 15.7464L46.5905 22.1056L52.6556 18.6135L41.6097 12.236Z" fill="#00FFB3"/>
<path d="M0 14.8825C0 14.8825 19.6106 3.57934 22.735 1.77819C26.852 -0.592729 29.4435 -0.592729 33.5604 1.77819C36.0783 3.23014 37.7876 4.20424 37.7876 4.20424L31.7225 7.69628C31.7225 7.69628 31.0057 7.27356 30.877 7.20004C29.0575 6.15243 27.2563 6.15243 25.4184 7.20004C23.8746 8.10062 6.06513 18.3746 6.06513 18.3746L0 14.8825Z" fill="black"/>
<path d="M24.4253 13.5411L30.4904 17.0332L23.1755 21.242C23.1755 21.242 24.8297 22.1977 25.4178 22.5286C27.2373 23.5762 29.0569 23.5762 30.8948 22.5286C32.2181 21.7566 35.5999 19.8268 35.5999 19.8268L41.665 23.3189C41.665 23.3189 36.0961 26.5352 33.5782 27.9872C29.4612 30.3581 26.8698 30.3581 22.7528 27.9872C18.1948 25.3589 11.0637 21.242 11.0637 21.242L24.4253 13.5411Z" fill="black"/>
<path d="M41.6097 10.6188L45.2672 8.50523L39.2021 5.01318L25.822 12.7324L31.8872 16.2245L35.5446 14.1109L46.5905 20.4885L52.6556 16.978L41.6097 10.6188Z" fill="black"/>
<path d="M70.4473 11.1883V13.7246C68.2234 13.3754 67.0104 14.4047 67.0104 17.1799V21.6828H64.327V11.3353H67.0471V12.8608C67.6537 11.6478 68.8299 10.9494 70.4473 11.1883Z" fill="black"/>
<path d="M71.4387 16.4999C71.4387 13.4122 73.7728 11.0413 76.934 11.0413C79.8012 11.0413 81.584 12.8792 82.0067 14.4414L79.4887 15.1582C79.2682 14.3128 78.2941 13.4306 76.9524 13.4306C75.2248 13.4306 74.122 14.8458 74.122 16.4815C74.122 18.0989 75.2248 19.5508 76.9524 19.5508C78.2941 19.5508 79.2682 18.7421 79.4887 17.8967L82.0067 18.5951C81.6023 20.1573 79.8012 21.9769 76.9708 21.9769C73.7728 21.9953 71.4387 19.606 71.4387 16.4999Z" fill="black"/>
<path d="M90.8462 21.3705C90.0192 21.7013 89.3024 21.8667 88.4202 21.8667C86.0493 21.8667 84.9649 20.3964 84.9649 18.1725V13.7063H83.2189V11.3354H84.9649V7.97205H87.685V11.3354H90.7176V13.7063H87.685V18.1541C87.685 18.9812 88.0894 19.459 88.9532 19.459C89.431 19.459 89.7802 19.3671 90.1846 19.165L90.8462 21.3705Z" fill="black"/>
<path d="M92.7238 20.1938C92.7238 19.3299 93.4406 18.6132 94.3596 18.6132C95.2418 18.6132 95.9585 19.3299 95.9585 20.1938C95.9585 21.1311 95.2418 21.8479 94.3596 21.8479C93.4406 21.8663 92.7238 21.1311 92.7238 20.1938Z" fill="black"/>
<path d="M104.852 20.5069C104.191 21.3707 102.996 21.8853 101.434 21.8486C100.221 21.8118 99.2649 21.3523 98.7135 20.7826C98.1254 20.1944 97.7578 19.5328 97.7578 18.5954C97.7578 16.8862 98.8054 15.6364 101.415 15.3056C102.426 15.1769 104.852 14.9196 104.852 14.9196V14.6991C104.852 13.7617 104.007 13.1185 102.481 13.1185C101.415 13.1185 100.46 13.3941 99.7428 14.1109L98.1621 12.806C99.2281 11.3908 100.735 10.9497 102.665 10.9497C105.606 10.9497 107.297 12.2546 107.297 15.3423V21.7199H104.871V20.5069H104.852ZM104.834 16.8127C104.834 16.8127 102.518 17.1067 101.636 17.217C100.588 17.364 100.202 17.8235 100.202 18.5219C100.202 19.0917 100.754 19.8452 101.912 19.8269C102.83 19.8085 103.492 19.6063 104.007 19.2387C104.595 18.7976 104.834 18.1176 104.834 17.4559V16.8127Z" fill="black"/>
<path d="M109.154 9.57103C109.154 8.68883 109.871 7.97205 110.772 7.97205C111.672 7.97205 112.389 8.68883 112.389 9.57103C112.389 10.49 111.672 11.2068 110.772 11.2068C109.871 11.2068 109.154 10.49 109.154 9.57103Z" fill="black"/>
<path d="M112.15 12.3092H109.43V21.6826H112.15V12.3092Z" fill="black"/>
</svg>
